<?xml version="1.0" standalone="no"?>
<!DOCTYPE svg PUBLIC "-//W3C//DTD SVG 20010904//EN"
 "http://www.w3.org/TR/2001/REC-SVG-20010904/DTD/svg10.dtd">
<svg version="1.0" xmlns="http://www.w3.org/2000/svg"
 width="300.000000pt" height="295.000000pt" viewBox="0 0 300.000000 295.000000"
 preserveAspectRatio="xMidYMid meet">
    <g transform="translate(0.000000,295.000000) scale(0.100000,-0.100000)"
    fill="rgb(0, 128, 255)" stroke="black">
    <path d="M1456 2483 c-23 -23 -27 -33 -21 -63 13 -70 17 -140 8 -140 -15 0
    -83 75 -83 92 0 24 -37 65 -65 70 -23 5 -61 -13 -77 -36 -19 -27 -6 -61 42
    -113 49 -54 60 -73 40 -73 -5 0 -10 -4 -10 -10 0 -5 6 -10 13 -10 22 0 76 -63
    83 -96 4 -23 2 -33 -10 -37 -12 -5 -16 0 -16 16 0 30 -90 137 -111 131 -18 -5
    -119 96 -119 120 0 25 -51 58 -80 51 -44 -11 -61 -35 -58 -79 3 -34 9 -44 37
    -61 29 -17 191 -160 198 -175 2 -3 -42 -5 -97 -6 -73 -1 -100 2 -100 11 0 7
    -21 34 -46 61 -26 27 -52 63 -59 79 -16 37 -42 60 -76 69 -20 4 -33 0 -53 -20
    -43 -44 -32 -100 26 -130 33 -17 138 -112 138 -124 0 -4 -9 -28 -20 -54 l-21
    -46 -57 61 c-31 34 -60 70 -64 79 -10 26 -48 50 -78 50 -32 0 -70 -38 -70 -68
    0 -34 28 -70 65 -82 41 -13 122 -99 104 -110 -18 -12 -82 -4 -117 14 -41 21
    -54 20 -86 -5 -33 -26 -36 -79 -5 -110 17 -17 30 -20 82 -17 50 2 62 0 62 -12
    0 -8 -9 -16 -20 -18 -32 -6 -65 -43 -65 -72 0 -37 36 -80 66 -80 14 0 42 9 64
    20 22 11 59 20 85 20 l45 0 -2 -137 c-3 -160 9 -198 73 -239 37 -23 46 -24
    204 -24 91 0 165 -3 165 -6 0 -3 -5 -14 -10 -24 -9 -17 -18 -18 -68 -14 -63 6
    -113 -14 -140 -54 -12 -19 -11 -24 12 -47 25 -24 28 -25 168 -25 79 0 149 -4
    156 -9 10 -6 6 -14 -17 -34 -17 -14 -31 -30 -31 -35 0 -5 -44 -8 -102 -6 -80
    2 -107 -1 -120 -13 -14 -13 -20 -13 -47 1 -35 19 -85 20 -131 5 -30 -11 -34
    -10 -58 21 -34 44 -78 60 -160 60 -55 0 -75 -4 -96 -21 l-26 -20 0 -149 c0
    -82 3 -156 6 -165 19 -48 176 -58 253 -14 37 21 42 21 58 7 10 -9 37 -22 60
    -28 34 -11 49 -10 85 1 30 10 51 12 70 5 20 -7 35 -6 53 4 28 15 31 22 40 103
    3 31 10 57 15 57 4 0 10 -29 12 -64 6 -95 44 -129 103 -90 22 14 26 14 47 0
    26 -19 90 -21 116 -5 14 9 25 8 49 -4 36 -19 113 -14 148 9 23 15 28 14 71 -7
    42 -20 53 -21 99 -12 28 6 63 9 78 6 16 -3 37 1 51 10 20 14 25 27 31 91 4 42
    10 76 14 76 5 0 11 -33 15 -72 7 -79 26 -108 71 -108 43 0 55 29 55 128 0 50
    -5 103 -10 118 -9 23 -7 31 16 55 33 34 34 72 4 105 -43 45 -96 26 -121 -44
    -14 -40 -29 -40 -58 -1 -31 41 -77 38 -106 -8 -18 -29 -25 -32 -66 -33 -32 0
    -57 -8 -83 -25 -20 -14 -39 -25 -41 -25 -2 0 -21 11 -41 25 -40 27 -109 34
    -145 15 -14 -8 -26 -7 -46 4 -31 16 -75 70 -66 80 4 3 68 6 144 6 130 0 139 1
    165 23 l27 24 -36 39 c-34 37 -38 39 -103 41 -63 1 -83 10 -84 37 0 5 58 6
    138 2 153 -7 188 0 235 43 52 47 57 68 57 221 l0 140 56 0 c41 0 63 -5 81 -20
    33 -26 63 -25 97 1 36 28 36 80 0 108 -15 12 -35 21 -44 21 -13 0 -17 6 -13
    21 5 18 11 20 53 14 58 -8 83 3 100 45 11 27 10 33 -13 63 -26 35 -61 41 -103
    19 -27 -14 -101 -25 -115 -17 -16 11 68 92 117 114 47 21 49 24 59 68 9 44
    -30 86 -77 81 -31 -3 -77 -51 -154 -160 -30 -43 -44 -48 -44 -17 0 12 -10 39
    -22 62 -19 33 -21 41 -8 45 8 3 37 26 65 52 27 26 59 50 70 54 24 7 55 55 55
    84 0 25 -45 62 -75 62 -28 0 -75 -36 -75 -58 -1 -9 -23 -41 -50 -71 -28 -30
    -50 -64 -50 -75 0 -16 14 -7 65 44 48 47 65 72 65 91 0 37 24 55 58 43 49 -17
    39 -94 -13 -94 -14 0 -44 -23 -85 -65 -61 -64 -63 -65 -82 -48 -17 15 -38 18
    -124 18 -57 0 -104 2 -103 5 1 11 162 146 197 166 41 23 67 76 51 107 -30 55
    -100 54 -134 -2 -23 -39 -95 -121 -104 -120 -3 0 -17 13 -29 30 l-24 29 30 28
    c39 37 48 67 27 98 -41 63 -104 52 -136 -23 -19 -45 -65 -102 -81 -103 -12 0
    -9 75 4 126 13 46 12 46 -20 75 -40 36 -62 37 -96 2z m82 -15 c17 -17 15 -53
    -3 -68 -12 -10 -15 -43 -15 -177 0 -145 -2 -164 -16 -161 -14 3 -16 24 -15
    166 1 103 -2 162 -8 162 -6 0 -15 9 -21 21 -24 43 43 92 78 57z m-223 -65 c10
    -9 15 -26 12 -39 -3 -18 10 -38 59 -87 l64 -64 0 -77 c0 -66 -2 -77 -16 -74
    -13 2 -17 17 -18 70 l-1 67 -60 61 c-33 33 -67 60 -77 60 -22 0 -48 38 -41 59
    16 43 49 54 78 24z m443 5 c21 -21 14 -56 -15 -75 -16 -9 -56 -44 -90 -77
    l-63 -60 0 -68 c0 -54 -3 -68 -15 -68 -12 0 -15 15 -15 78 l0 78 63 62 c51 51
    63 68 59 88 -8 44 45 73 76 42z m-662 -73 c8 -13 13 -28 10 -33 -3 -6 45 -60
    107 -122 89 -90 108 -114 93 -118 -13 -3 -49 26 -125 101 -59 59 -112 103
    -119 100 -17 -7 -52 25 -52 48 0 23 27 49 50 49 11 0 27 -11 36 -25z m888 9
    c9 -8 16 -23 16 -31 0 -24 -30 -53 -54 -53 -14 0 -58 -36 -121 -100 -86 -87
    -135 -120 -135 -92 0 4 47 54 105 112 70 69 105 112 105 127 0 26 25 53 50 53
    10 0 26 -7 34 -16z m-1112 -101 c10 -9 18 -26 18 -39 0 -15 23 -44 65 -85 55
    -53 63 -64 49 -72 -13 -7 -30 4 -78 52 -38 38 -70 61 -84 61 -12 0 -29 11 -38
    25 -15 23 -15 27 0 50 19 29 42 32 68 8z m866 -10 c8 -13 -2 -31 -44 -80 -33
    -39 -51 -68 -48 -78 4 -10 0 -15 -10 -15 -31 0 -19 54 24 102 21 25 37 48 33
    51 -10 10 6 37 21 37 8 0 19 -8 24 -17z m590 -202 c5 -30 -15 -51 -47 -51 -20
    0 -46 -19 -101 -75 -41 -41 -80 -75 -87 -75 -7 0 -13 11 -13 25 0 14 6 25 13
    25 21 0 134 123 141 153 12 53 86 51 94 -2z m-1570 27 c7 -7 12 -21 13 -32 0
    -13 31 -48 79 -91 72 -65 98 -105 67 -105 -7 0 -46 34 -87 75 -55 55 -81 75
    -101 75 -38 0 -62 30 -50 64 8 20 17 26 39 26 15 0 33 -5 40 -12z m1230 -55
    c50 -31 53 -59 50 -399 l-3 -316 -37 -34 -38 -34 -456 0 -456 0 -39 39 -39 39
    0 326 0 326 29 32 29 33 439 5 c241 3 452 4 468 2 17 -2 41 -11 53 -19z
    m-1291 -183 c15 -18 30 -20 125 -20 103 0 108 -1 108 -21 0 -20 -4 -20 -115
    -18 -78 2 -119 -1 -127 -9 -17 -17 -38 -15 -60 5 -22 20 -23 41 -1 65 21 24
    49 23 70 -2z m1687 -12 c17 -47 -43 -91 -73 -54 -9 11 -35 12 -121 8 -107 -5
    -110 -4 -110 17 0 20 4 21 108 21 97 0 108 2 120 21 19 30 64 22 76 -13z
    m-154 -93 c7 -9 11 -17 9 -19 -2 -2 -39 -6 -81 -8 -69 -3 -78 -1 -78 14 0 13
    11 18 48 21 26 2 57 4 68 5 12 1 27 -5 34 -13z m-1300 -9 c0 -8 -16 -15 -42
    -19 -56 -8 -98 1 -91 19 7 20 133 20 133 0z m-159 -52 c24 -12 46 -14 95 -9
    61 7 64 6 64 -14 0 -19 -5 -21 -66 -21 -59 0 -68 -3 -86 -25 -11 -14 -26 -25
    -34 -25 -19 0 -54 36 -54 55 0 14 34 55 45 55 4 0 20 -7 36 -16z m1521 4 c28
    -22 31 -55 9 -77 -27 -27 -37 -26 -67 4 -21 22 -34 25 -89 25 -59 0 -65 2 -65
    21 0 19 5 21 73 18 42 -2 80 2 92 9 25 15 28 15 47 0z m-677 -518 l18 -40 73
    0 c68 0 76 -2 106 -30 l33 -29 -332 -1 c-198 0 -333 4 -333 9 0 5 12 19 26 30
    21 17 41 21 97 21 73 0 86 7 107 58 9 20 16 22 98 22 l89 0 18 -40z m691 -165
    c8 -32 -11 -55 -46 -55 -35 0 -54 22 -46 55 13 51 79 50 92 0z m-735 -85 c21
    0 39 -4 39 -9 0 -28 -14 -41 -46 -41 l-34 0 0 -54 c0 -73 6 -86 41 -86 16 0
    29 -3 29 -7 0 -5 3 -18 6 -30 6 -21 3 -23 -33 -23 -30 0 -47 7 -67 26 -23 24
    -26 34 -26 100 0 59 -3 74 -15 74 -9 0 -15 9 -15 25 0 16 6 25 16 25 12 0 15
    7 12 25 -3 16 -1 25 7 25 7 0 19 7 26 17 12 14 14 12 17 -25 3 -42 3 -42 43
    -42z m535 24 l-6 -56 26 21 c37 29 68 26 106 -8 33 -29 33 -31 36 -130 l4
    -101 -31 0 -31 0 0 88 c0 75 -3 92 -19 106 -17 16 -23 16 -48 4 -27 -13 -28
    -15 -31 -106 l-3 -92 -29 0 -30 0 0 165 0 165 31 0 32 0 -7 -56z m-1161 21
    c30 -29 33 -73 6 -106 -18 -22 -18 -23 1 -38 10 -9 21 -32 24 -52 5 -29 1 -41
    -19 -65 -24 -28 -29 -29 -124 -32 l-98 -4 0 161 0 161 93 0 c85 0 95 -2 117
    -25z m205 -50 c41 -21 60 -53 60 -102 l0 -43 -80 0 c-83 0 -96 -8 -58 -34 26
    -18 61 -21 88 -6 15 8 21 6 31 -12 19 -35 -19 -55 -95 -49 -63 5 -106 61 -106
    136 0 49 23 89 62 108 41 21 61 21 98 2z m120 -7 c0 -19 1 -20 18 -5 38 34
    112 26 139 -15 4 -7 10 -59 13 -116 l5 -102 -27 0 -28 0 0 81 c0 95 -10 119
    -49 119 -50 0 -64 -28 -60 -119 l4 -81 -27 0 -28 0 0 130 c0 123 1 130 20 130
    14 0 20 -7 20 -22z m523 -18 c21 -24 27 -40 27 -75 l0 -45 -81 0 c-60 0 -80
    -3 -77 -12 11 -32 72 -44 120 -24 21 9 46 -30 29 -47 -19 -19 -118 -21 -146
    -3 -64 42 -83 127 -42 187 45 67 119 76 170 19z m206 29 c23 -8 31 -17 31 -35
    0 -22 -3 -23 -49 -17 -41 5 -52 2 -70 -16 -31 -31 -28 -84 6 -111 27 -21 50
    -22 96 -5 13 6 17 2 17 -19 0 -31 -25 -46 -75 -46 -77 0 -115 42 -115 130 0
    38 6 55 27 80 40 48 75 59 132 39z m8 -105 c9 -24 -10 -49 -37 -49 -31 0 -48
    28 -31 49 17 21 60 21 68 0z"/>
    <path d="M1491 2450 c-17 -10 -7 -40 13 -40 7 0 16 6 19 14 8 19 -15 37 -32
    26z"/>
    <path d="M1262 2373 c5 -26 38 -29 38 -4 0 15 -6 21 -21 21 -14 0 -19 -5 -17
    -17z"/>
    <path d="M1702 2373 c2 -10 10 -18 18 -18 8 0 16 8 18 18 2 12 -3 17 -18 17
    -15 0 -20 -5 -18 -17z"/>
    <path d="M1035 2320 c-4 -7 -3 -16 3 -22 14 -14 45 -2 40 15 -6 16 -34 21 -43
    7z"/>
    <path d="M1937 2334 c-16 -16 -7 -44 14 -44 15 0 20 5 17 22 -3 22 -19 33 -31
    22z"/>
    <path d="M825 2220 c-4 -7 -3 -16 3 -22 14 -14 45 -2 40 15 -6 16 -34 21 -43
    7z"/>
    <path d="M2264 2035 c-7 -18 3 -35 21 -35 18 0 26 25 12 39 -15 15 -27 14 -33
    -4z"/>
    <path d="M704 2035 c-7 -18 3 -35 21 -35 18 0 26 25 12 39 -15 15 -27 14 -33
    -4z"/>
    <path d="M1045 1945 l-25 -24 0 -274 c0 -223 3 -277 14 -286 18 -15 925 -5
    944 11 9 8 12 74 12 270 0 270 -5 306 -45 322 -9 3 -210 6 -446 6 l-430 0 -24
    -25z m189 -52 c-3 -21 -13 -42 -22 -48 -43 -28 -54 -46 -47 -82 6 -32 5 -35
    -12 -27 -10 4 -35 8 -55 7 l-38 -1 0 82 c0 50 5 87 12 94 7 7 43 12 90 12 l79
    0 -7 -37z m226 -29 c0 -48 -2 -54 -21 -54 -15 0 -19 4 -15 16 3 9 6 35 6 60 0
    34 3 42 15 38 11 -5 15 -21 15 -60z m60 11 c0 -42 -3 -55 -15 -55 -12 0 -15
    13 -15 55 0 42 3 55 15 55 12 0 15 -13 15 -55z m60 -10 c0 -53 -3 -63 -15 -59
    -11 4 -15 21 -15 58 0 29 3 56 7 59 17 17 23 2 23 -58z m72 60 c8 -9 -15 -55
    -27 -55 -9 0 -13 44 -6 58 2 4 28 2 33 -3z m274 -3 c17 -12 24 -52 17 -114 -5
    -53 -8 -58 -30 -58 -13 0 -37 -7 -53 -15 l-30 -15 10 26 c13 32 -5 75 -38 89
    -13 6 -22 19 -22 32 0 12 -3 28 -6 36 -3 10 2 17 13 20 30 8 127 7 139 -1z
    m-608 -14 c7 -7 12 -18 12 -26 0 -8 18 -32 40 -53 22 -22 40 -43 40 -48 0 -10
    -58 -21 -112 -21 -21 0 -38 -4 -38 -9 0 -15 -30 -21 -51 -11 -21 12 -25 50 -7
    68 17 17 47 15 54 -3 4 -11 21 -15 55 -15 27 0 49 3 49 6 0 11 -45 43 -60 44
    -38 0 -54 51 -22 69 22 13 26 13 40 -1z m426 -10 c19 -27 5 -58 -28 -58 -13 0
    -38 -15 -57 -35 -19 -19 -40 -35 -46 -35 -26 0 -12 30 27 61 22 18 40 40 40
    50 0 16 24 38 42 39 4 0 14 -10 22 -22z m64 -90 c17 -17 15 -53 -4 -69 -13
    -11 -19 -10 -37 1 -12 8 -44 17 -70 20 -63 7 -65 24 -3 28 27 2 55 10 63 18
    18 17 35 18 51 2z m-249 -32 c33 -18 51 -54 51 -107 0 -58 -42 -99 -102 -99
    -52 0 -85 21 -104 66 -19 46 -8 89 33 124 38 33 77 39 122 16z m-181 -48 c-3
    -7 -10 -13 -16 -12 -7 1 -28 2 -47 3 -55 2 -41 21 16 21 36 0 49 -4 47 -12z
    m330 6 c12 -4 22 -11 22 -16 0 -14 -93 -5 -98 10 -4 13 36 16 76 6z m232 -48
    c0 -35 -26 -53 -52 -37 -14 9 -55 12 -132 10 -91 -2 -111 0 -111 12 0 11 22
    15 108 17 92 2 111 6 128 23 25 25 59 10 59 -25z m-804 19 c5 -12 27 -15 115
    -15 98 0 109 -2 109 -18 0 -16 -10 -17 -104 -14 -64 3 -111 0 -124 -7 -26 -14
    -49 -5 -57 20 -12 38 47 70 61 34z m120 -74 c5 -6 33 -11 63 -13 74 -4 83 -28
    11 -28 -41 0 -55 -5 -69 -21 -34 -43 -86 2 -56 47 16 25 35 30 51 15z m549
    -15 c13 -19 14 -29 5 -45 -14 -27 -46 -27 -60 -1 -9 16 -21 20 -65 20 -42 0
    -55 3 -55 15 0 12 13 15 58 15 31 0 64 5 72 10 22 14 28 12 45 -14z m-674 -6
    c38 0 39 -1 39 -34 0 -27 7 -39 30 -56 19 -14 30 -30 30 -46 0 -31 33 -64 64
    -64 14 0 36 13 53 30 36 38 43 38 43 -4 0 -25 -5 -36 -17 -39 -16 -4 -225 -3
    -290 2 -22 1 -23 4 -23 112 0 97 2 110 16 105 9 -3 33 -6 55 -6z m812 -99 c-1
    -57 -5 -106 -8 -110 -9 -9 -317 -3 -325 6 -4 4 -2 23 4 41 l12 33 32 -36 c26
    -28 38 -34 55 -29 35 10 68 46 65 70 -2 14 8 30 29 48 17 14 34 37 37 50 5 20
    14 26 44 29 20 2 41 3 47 2 6 -1 9 -42 8 -104z m-237 9 c43 0 60 -51 23 -70
    -22 -12 -49 1 -49 25 0 7 -18 29 -41 50 -27 24 -39 42 -34 52 5 13 13 10 43
    -20 21 -20 47 -37 58 -37z m-296 52 c0 -4 -16 -24 -36 -43 -20 -18 -40 -44
    -45 -57 -18 -47 -73 -34 -67 17 2 21 8 26 31 26 17 1 39 13 60 33 30 30 57 42
    57 24z m50 -103 c0 -63 -2 -69 -21 -69 -19 0 -20 4 -15 73 2 39 5 73 5 74 1 1
    8 0 16 -3 11 -5 15 -23 15 -75z m120 6 c0 -60 -3 -75 -15 -75 -12 0 -15 14
    -15 69 0 63 3 73 28 80 1 1 2 -33 2 -74z m-60 -10 c0 -51 -3 -65 -15 -65 -12
    0 -15 14 -15 65 0 51 3 65 15 65 12 0 15 -14 15 -65z"/>
    <path d="M1475 1748 c-74 -40 -53 -148 29 -148 69 0 102 85 51 135 -26 27 -49
    31 -80 13z m63 -40 c21 -21 14 -57 -12 -70 -14 -6 -32 -8 -40 -5 -21 8 -31 54
    -16 72 15 18 51 20 68 3z"/>
    <path d="M1762 1593 c5 -25 28 -28 28 -4 0 12 -6 21 -16 21 -9 0 -14 -7 -12
    -17z"/>
    <path d="M1486 1314 c-17 -16 -12 -40 9 -48 19 -7 46 20 39 39 -8 21 -32 26
    -48 9z"/>
    <path d="M1685 1300 c-8 -13 3 -30 20 -30 14 0 27 24 18 34 -10 9 -31 7 -38
    -4z"/>
    <path d="M1764 1299 c-10 -17 13 -36 27 -22 12 12 4 33 -11 33 -5 0 -12 -5
    -16 -11z"/>
    <path d="M1835 1300 c-4 -7 -3 -16 3 -22 14 -14 45 -2 40 15 -6 16 -34 21 -43
    7z"/>
    <path d="M1914 1299 c-8 -14 11 -33 25 -25 16 10 13 36 -3 36 -8 0 -18 -5 -22
    -11z"/>
    <path d="M637 1804 c-11 -11 5 -34 24 -34 12 0 19 7 19 20 0 19 -28 28 -43 14z"/>
    <path d="M2320 1789 c0 -25 33 -22 38 4 2 12 -3 17 -17 17 -15 0 -21 -6 -21
    -21z"/>
    <path d="M724 1625 c-4 -9 -2 -21 4 -27 15 -15 44 -1 40 19 -4 23 -36 29 -44
    8z"/>
    <path d="M2252 1627 c-15 -17 1 -42 23 -33 18 6 17 37 -1 43 -6 2 -16 -2 -22
    -10z"/>
    <path d="M2228 980 c-9 -24 10 -50 36 -50 13 0 27 7 30 16 10 26 7 29 -9 8
    -13 -16 -16 -17 -25 -4 -9 13 -10 13 -11 0 -1 -8 -4 -1 -8 15 -5 20 -9 25 -13
    15z"/>
    <path d="M788 870 l4 -41 57 3 c50 3 56 6 59 26 6 37 -15 52 -72 52 l-52 0 4
    -40z"/>
    <path d="M790 735 l0 -45 39 0 c80 0 120 33 86 70 -14 15 -31 20 -72 20 l-53
    0 0 -45z"/>
    <path d="M1057 822 c-10 -10 -17 -22 -17 -25 0 -4 27 -7 60 -7 43 0 60 4 60
    13 0 38 -74 51 -103 19z"/>
    <path d="M1672 823 l-27 -28 38 -3 c20 -2 52 -2 70 0 l32 3 -27 28 c-15 15
    -34 27 -43 27 -9 0 -28 -12 -43 -27z"/>
    <path d="M2142 2213 c4 -22 43 -25 43 -3 0 8 -11 16 -23 18 -19 3 -23 0 -20
    -15z"/>
    </g>
</svg>
