<?xml version="1.0" encoding="UTF-8"?>
<svg version="1.1" xmlns="http://www.w3.org/2000/svg" width="605" height="534">
<path d="M0 0 C68.64 0 137.28 0 208 0 C209.19502075 10.75518672 209.19502075 10.75518672 207 14 C200.71889344 18.09002288 193.8901149 18.13000075 186.59046936 18.08229065 C185.8797377 18.07907303 185.16900604 18.07585541 184.43673706 18.07254028 C182.06592214 18.06054784 179.69522794 18.0411249 177.32446289 18.02172852 C175.59148381 18.01139234 173.85850194 18.0015146 172.12551785 17.99205685 C167.49526907 17.96552677 162.86508457 17.93274331 158.23488617 17.89864349 C153.88606233 17.8675694 149.53721248 17.84216292 145.18835449 17.81628418 C132.47969979 17.73736956 119.77110272 17.64938335 107.0625 17.5625 C64.4615625 17.2840625 64.4615625 17.2840625 21 17 C21.33 106.1 21.66 195.2 22 287 C79.89835762 283.29892607 79.89835762 283.29892607 137.79254317 279.53459311 C141.86575892 279.26694411 145.93902447 279.00005476 150.01228333 278.73306274 C156.90184588 278.28139566 163.79138621 277.82939113 170.6809082 277.37710571 C187.92492798 276.24510094 205.16908278 275.11515491 222.41323709 273.9852016 C225.16142653 273.8051162 227.90961467 273.62501098 230.65780258 273.44490242 C266.43392686 271.10032593 302.21085774 268.76823937 337.98825884 266.44323397 C340.00450078 266.31220751 342.02074218 266.18117281 344.03698349 266.05013657 C359.6912802 265.03277533 375.34561447 264.01599349 391 263 C390.34 262.236875 389.68 261.47375 389 260.6875 C387 258 387 258 387 255 C388.78833008 253.421875 388.78833008 253.421875 391.26953125 251.75 C392.60274414 250.83734375 392.60274414 250.83734375 393.96289062 249.90625 C394.90326172 249.2771875 395.84363281 248.648125 396.8125 248 C398.65413796 246.75264494 400.49405456 245.50274368 402.33203125 244.25 C403.15421143 243.69828125 403.9763916 243.1465625 404.82348633 242.578125 C406.75924318 241.17456557 408.37413166 239.74512278 410 238 C409.34 236.35 408.68 234.7 408 233 C402.37761295 231.76307485 399.93379984 232.13804493 395 235 C391.3270496 237.56125755 387.74641393 240.2492665 384.18945312 242.96875 C383.46564453 243.49984375 382.74183594 244.0309375 381.99609375 244.578125 C381.34825928 245.06700195 380.7004248 245.55587891 380.03295898 246.05957031 C377.28518323 247.33066821 375.83903889 246.9298972 373 246 C370.125 243.6875 370.125 243.6875 368 241 C368.3671875 238.83203125 368.3671875 238.83203125 369 237 C368.154375 236.97421875 367.30875 236.9484375 366.4375 236.921875 C358.71520477 236.53576024 352.21151896 236.03208081 346.44140625 230.5078125 C342.80685614 226.36874977 341.5690092 222.82183262 341.66015625 217.3125 C342.80047471 209.55309162 347.83260988 202.63519926 354 198 C360.60603447 194.07284575 368.37130374 193.88112091 375.71484375 195.65625 C381.43914029 197.65329781 386.26133297 200.39225322 389 206 C389.45050661 209.07519728 389.37700254 211.92114589 389 215 C386.47524538 216.26237731 384.68799534 216.09856404 381.875 216.0625 C380.96492188 216.05347656 380.05484375 216.04445313 379.1171875 216.03515625 C378.41851562 216.02355469 377.71984375 216.01195312 377 216 C376.731875 214.88625 376.46375 213.7725 376.1875 212.625 C375.34190981 208.78159049 375.34190981 208.78159049 372 207 C366.26616847 207.1051699 366.26616847 207.1051699 361.625 210.0625 C361.08875 210.701875 360.5525 211.34125 360 212 C359.34 212 358.68 212 358 212 C355.978171 216.04365799 355.80849079 218.63113288 357 223 C361.56109872 225.28054936 367.15621644 223.77500537 372 223 C374.29379749 226.44069624 375 227.72290301 375 232 C388.32327977 223.06982494 388.32327977 223.06982494 401.1875 213.5 C405.64530272 209.99988379 410.11625727 206.87278984 415 204 C421.17761989 207.5062167 421.17761989 207.5062167 423 210 C423.44921875 212.33203125 423.44921875 212.33203125 423 215 C420.375 217.23828125 420.375 217.23828125 417 219.3125 C415.88625 220.00988281 414.7725 220.70726562 413.625 221.42578125 C412.75875 221.94527344 411.8925 222.46476563 411 223 C411.68707031 223.31453125 412.37414062 223.6290625 413.08203125 223.953125 C413.98308594 224.38109375 414.88414062 224.8090625 415.8125 225.25 C416.70582031 225.66765625 417.59914063 226.0853125 418.51953125 226.515625 C421.13484023 228.08069179 422.2672561 229.54289428 424 232 C424.78109684 224.56824429 425.15423415 217.22013795 425.2109375 209.75 C425.23895778 207.65754361 425.26762175 205.56509576 425.296875 203.47265625 C425.33838019 200.21598114 425.37532406 196.95947461 425.40136719 193.70263672 C425.42884708 190.53060376 425.47465127 187.359267 425.5234375 184.1875 C425.52669037 183.20942383 425.52994324 182.23134766 425.53329468 181.22363281 C425.54986115 180.31838867 425.56642761 179.41314453 425.58349609 178.48046875 C425.59562637 177.28780396 425.59562637 177.28780396 425.60800171 176.07104492 C426.09773813 173.48362008 426.90872352 172.56185083 429 171 C433.10790231 171.16564122 435.28263614 172.71364119 438.25 175.4375 C439.27867187 176.36369141 439.27867187 176.36369141 440.328125 177.30859375 C444.59291028 181.62320128 443.38984621 188.17103036 443.5625 193.875 C443.59376984 194.88953247 443.59376984 194.88953247 443.62567139 195.92456055 C444.52686164 226.00363179 444.06859367 256.10548777 443.5625 286.1875 C443.5429425 287.4235498 443.52338501 288.65959961 443.50323486 289.93310547 C443.44647307 293.42818508 443.38271073 296.92305867 443.31640625 300.41796875 C443.2913224 302.0052906 443.2913224 302.0052906 443.26573181 303.62467957 C443.24579666 304.58537857 443.22586151 305.54607758 443.20532227 306.53588867 C443.18200584 307.79909187 443.18200584 307.79909187 443.15821838 309.08781433 C443 311 443 311 442 312 C439.9840136 312.24369771 437.96012664 312.42214557 435.93528748 312.57582092 C435.2948763 312.62567798 434.65446513 312.67553503 433.99464756 312.7269029 C431.83325138 312.89402098 429.67141368 313.05452337 427.50952148 313.21508789 C425.9656941 313.33307413 424.4218969 313.45145598 422.87812805 313.57020569 C418.67148768 313.892569 414.46442892 314.20913581 410.25726199 314.52454305 C405.85651214 314.85526801 401.45612145 315.19070764 397.05567932 315.52549744 C389.65706835 316.08765098 382.25818751 316.64613768 374.85913086 317.20239258 C366.31393543 317.84484993 357.76915793 318.49264542 349.22459358 319.1434384 C341.00488953 319.76939633 332.78492866 320.39191526 324.5648365 321.01275444 C321.068554 321.27685607 317.5723597 321.54208456 314.076231 321.80821419 C309.95035985 322.12209645 305.82427008 322.4329355 301.69799614 322.74147606 C300.18708559 322.8549249 298.6762505 322.96938427 297.16550064 323.08495331 C295.09506585 323.24315971 293.02438253 323.39761131 290.95359802 323.55116272 C289.79712485 323.63835603 288.64065168 323.72554934 287.44913387 323.81538486 C283.63771562 324.0193913 279.81687407 324 276 324 C276 333.9 276 343.8 276 354 C279.96 354 283.92 354 288 354 C290.2104624 354.10890119 292.42029986 354.24436589 294.625 354.4375 C295.60726563 354.51871094 296.58953125 354.59992188 297.6015625 354.68359375 C300 355 300 355 302 356 C302 358.31 302 360.62 302 363 C273.24148109 365.84902897 244.4433877 367.83228205 215.60046768 369.58041763 C212.83008842 369.74893016 210.05985355 369.91966094 207.28964233 370.09091187 C202.83500735 370.36564935 198.38001043 370.63361011 193.92466354 370.8965435 C192.2760087 370.99450073 190.62745462 371.0941738 188.97902298 371.19581795 C180.1213803 371.73936836 171.28845942 372.0910191 162.4128418 372.12207031 C161.58595006 372.12686779 160.75905832 372.13166527 159.90710926 372.13660812 C154.12291759 372.12291759 154.12291759 372.12291759 153 371 C152.95919217 369.00041636 152.95745644 366.99954746 153 365 C156.56225502 364.18642345 160.1248463 363.37432881 163.6875 362.5625 C165.19860352 362.21735352 165.19860352 362.21735352 166.74023438 361.86523438 C167.71669922 361.64287109 168.69316406 361.42050781 169.69921875 361.19140625 C170.59471436 360.98717041 171.49020996 360.78293457 172.4128418 360.57250977 C174.93463621 360.01446429 177.46735509 359.50652898 180 359 C180.33 349.76 180.66 340.52 181 331 C179.35 331.33 177.7 331.66 176 332 C174.43302477 332.16296286 172.86276911 332.29648756 171.29100037 332.40377808 C170.37167221 332.46813049 169.45234406 332.53248291 168.50515747 332.5987854 C167.50757416 332.6652829 166.50999084 332.7317804 165.48217773 332.80029297 C164.4207103 332.87364868 163.35924286 332.94700439 162.26560974 333.02258301 C158.73847626 333.26555216 155.21104463 333.5038743 151.68359375 333.7421875 C149.19537961 333.91265108 146.70718515 334.08340211 144.2190094 334.25442505 C138.30062438 334.66051439 132.38204512 335.06368592 126.46336561 335.46545422 C119.26118434 335.95451691 112.05930392 336.44795869 104.85742188 336.94140625 C97.19410747 337.46636814 89.53073073 337.99033695 81.86703491 338.50970459 C71.27907435 339.22750284 60.69130676 339.94597952 50.10603619 340.70258141 C46.07729187 340.99050223 42.04828969 341.27472012 38.01927376 341.55881119 C36.19602105 341.68854995 34.37290569 341.82023825 32.54995537 341.95415878 C30.05455217 342.13743438 27.55873805 342.31374949 25.06274414 342.48876953 C24.37496698 342.54127995 23.68718983 342.59379036 22.97857094 342.647892 C15.28675708 343.17310906 7.77244703 343 0 343 C0 229.81 0 116.62 0 0 Z M424 241 C423.525625 241.825 423.05125 242.65 422.5625 243.5 C417.73664701 250.90428707 409.02923753 255.79409957 401.8359375 260.65234375 C401.23007812 261.09707031 400.62421875 261.54179687 400 262 C400 262.33 400 262.66 400 263 C403.41697238 262.8608331 406.83348757 262.71250415 410.25 262.5625 C411.21808594 262.52318359 412.18617188 262.48386719 413.18359375 262.44335938 C414.11816406 262.40146484 415.05273438 262.35957031 416.015625 262.31640625 C417.30388184 262.26141968 417.30388184 262.26141968 418.61816406 262.20532227 C421.29809686 262.03761836 421.29809686 262.03761836 425 261 C425 254.4 425 247.8 425 241 C424.67 241 424.34 241 424 241 Z " fill="#FEFEFE" transform="translate(38,152)"/>
<path d="M0 0 C2.27947619 -0.00654395 4.55454984 -0.06098318 6.83325195 -0.11791992 C19.02028712 -0.26147833 19.02028712 -0.26147833 23.37817383 3.30200195 C25.53815659 5.70320829 27.1922187 8.15248657 28.35864258 11.1809082 C28.65512695 11.91567383 28.95161133 12.65043945 29.25708008 13.4074707 C32.49579811 22.98432509 31.59748764 33.50177318 29.48364258 43.2434082 C28.21131012 49.36364344 27.71104809 55.12224143 27.73364258 61.3684082 C27.73684509 62.74279305 27.73684509 62.74279305 27.7401123 64.14494324 C27.84373179 72.6558833 28.89937793 80.90749278 30.12207031 89.31661987 C35.22735583 125.34706039 35.66200791 163.55291112 29.98364258 199.5559082 C29.6774803 201.6885095 29.37282532 203.82132766 29.06958008 205.9543457 C25.26759344 231.85537967 19.41376277 257.74687208 10.98364258 282.5559082 C11.97364258 283.2159082 12.96364258 283.8759082 13.98364258 284.5559082 C14.21051758 283.74766602 14.43739258 282.93942383 14.67114258 282.10668945 C16.31342377 277.6637323 18.57087982 273.80683405 20.98364258 269.7434082 C21.46986084 268.91389648 21.9560791 268.08438477 22.45703125 267.22973633 C23.96005196 264.66829491 25.47080897 262.11156406 26.98364258 259.5559082 C28.33537853 257.26773722 29.68652491 254.97922428 31.03637695 252.68994141 C31.84130418 251.32640093 32.64838419 249.9641275 33.45825195 248.60351562 C36.20672637 243.96281322 38.80713029 239.25117782 41.37890625 234.51049805 C49.18537993 220.13746526 57.15978616 205.85988979 65.42114258 191.7434082 C66.28751343 190.25828735 66.28751343 190.25828735 67.17138672 188.74316406 C69.63607589 184.52669466 72.11531448 180.32331066 74.67114258 176.16137695 C75.05858643 175.5185376 75.44603027 174.87569824 75.84521484 174.21337891 C76.82601396 172.58850613 77.82386065 170.9739546 78.82348633 169.3605957 C80.26669161 165.87163478 80.00887216 164.15845103 78.98364258 160.5559082 C78.23074547 158.75892382 77.41643108 156.98656766 76.54614258 155.2434082 C72.1574852 145.8173354 70.41567663 136.9507977 73.92504883 126.8449707 C77.96739882 117.95980537 84.1455577 113.30248766 92.98364258 109.5559082 C99.75059276 107.30025814 108.31114935 107.42959841 114.92114258 110.1809082 C123.42124001 114.69116398 128.70947219 120.92462915 132.29614258 129.8059082 C133.75369286 137.75618246 134.35259089 146.43717454 129.98364258 153.5559082 C125.05685592 160.14614756 119.31898215 165.12373042 112.56176758 169.7668457 C111.71098633 170.35723633 110.86020508 170.94762695 109.98364258 171.5559082 C109.15219727 172.12567383 108.32075195 172.69543945 107.46411133 173.2824707 C104.16569586 176.30558535 102.2288001 179.68217116 100.04614258 183.5559082 C99.6050415 184.32209473 99.16394043 185.08828125 98.70947266 185.87768555 C95.87225048 190.85078236 93.27524736 195.90465856 90.77661133 201.0559082 C88.32218385 205.84712176 85.6505785 210.5054374 82.98364258 215.1809082 C77.49455806 224.80841824 72.19588128 234.52597308 66.96557617 244.29614258 C62.41761896 252.78154109 57.75731948 261.19565924 52.98364258 269.5559082 C55.89860041 268.93023599 58.26646188 268.00510188 60.88452148 266.5871582 C61.63381927 266.1856958 62.38311707 265.7842334 63.15512085 265.37060547 C64.35801254 264.71983032 64.35801254 264.71983032 65.58520508 264.0559082 C74.2713239 259.4218733 83.04861978 255.02525027 91.91091919 250.73974609 C96.30955563 248.61235192 100.702687 246.47362089 105.09692383 244.3371582 C106.03565842 243.88111206 106.97439301 243.42506592 107.9415741 242.9552002 C119.00898192 237.576662 130.05855595 232.16178543 141.10626221 226.74291992 C144.43978608 225.10806835 147.77395209 223.47453202 151.1081543 221.84106445 C162.70076097 216.15714855 174.27379457 210.43765127 185.80018616 204.62036133 C197.19586231 198.89069385 208.7847869 193.56253986 220.67114258 188.9309082 C230.70700994 184.7551947 235.87597528 178.95522495 240.98364258 169.5559082 C244.83844889 162.92967251 249.11331547 160.05447039 256.42114258 157.8059082 C257.26676758 157.7234082 258.11239258 157.6409082 258.98364258 157.5559082 C259.93303711 157.46116211 259.93303711 157.46116211 260.90161133 157.36450195 C269.98937784 156.86588114 278.26327387 160.22320047 285.26489258 165.91918945 C291.39941862 171.7609313 294.17077087 178.06651802 294.41503906 186.62084961 C294.44338708 196.7694382 292.75657491 203.63276184 285.79614258 211.3684082 C280.09831285 216.59656867 273.05785053 220.22165235 265.26879883 220.6887207 C259.15984626 220.33367047 253.9012957 218.32557097 248.85864258 214.9309082 C245.01313874 212.41565818 241.61944869 211.15133236 236.98364258 211.5559082 C227.21103398 213.97164863 217.82382597 217.78459762 208.48364258 221.4934082 C207.77619904 221.77292328 207.06875549 222.05243835 206.33987427 222.34042358 C186.597537 230.15609296 167.03226731 238.61037705 148.18725586 248.4128418 C145.50952404 249.80184472 142.82243449 251.17212248 140.13598633 252.54418945 C128.00802701 258.76448833 116.04914798 265.18618324 104.33569336 272.15698242 C101.83651345 273.64341598 99.33010553 275.11721539 96.82348633 276.59106445 C87.27653294 282.23272918 77.97469914 288.05872135 68.98364258 294.5559082 C69.90918945 294.33676758 70.83473633 294.11762695 71.78833008 293.8918457 C73.90307515 293.39159502 76.01830197 292.8936395 78.13452148 292.3996582 C82.74686182 291.32286158 87.35226669 290.22288618 91.95239258 289.0949707 C107.52602213 285.32268619 123.07220442 282.46747909 138.98364258 280.5559082 C139.95479004 280.43731445 140.9259375 280.3187207 141.92651367 280.1965332 C180.00788374 275.81231517 219.63885451 277.39429565 257.52661133 282.90356445 C258.3211824 283.0190715 259.11575348 283.13457855 259.93440247 283.25358582 C263.7466106 283.813484 267.55346943 284.39501572 271.35595703 285.01757812 C282.32827992 286.77126515 291.66820237 287.18556384 301.92114258 282.5559082 C311.77529287 278.29682592 321.02005937 276.76684405 331.49536133 280.32543945 C338.67798689 283.87728726 344.5979318 289.67506977 347.37036133 297.2434082 C350.02790779 307.26422033 349.07112727 316.70435074 344.03051758 325.81762695 C340.06533301 332.40160879 334.024067 337.24305347 326.46411133 339.2121582 C317.12805953 340.50597326 308.90544766 339.5054464 301.04614258 334.0559082 C297.66118754 331.36943595 294.89825626 328.29534596 292.04614258 325.0559082 C282.59066133 314.54506404 273.55695798 311.91774736 259.98364258 309.5559082 C258.52547119 309.29680664 258.52547119 309.29680664 257.0378418 309.0324707 C199.43342222 298.98105942 141.65808305 302.83187715 85.13964844 317.1003418 C82.98364258 317.5559082 82.98364258 317.5559082 79.98364258 317.5559082 C79.98364258 320.1959082 79.98364258 322.8359082 79.98364258 325.5559082 C83.28364258 325.8859082 86.58364258 326.2159082 89.98364258 326.5559082 C89.65364258 329.5259082 89.32364258 332.4959082 88.98364258 335.5559082 C84.84162176 337.56416072 81.54402567 337.64185182 76.98364258 337.5559082 C76.28445953 340.13658383 75.59903209 342.71963667 74.92114258 345.3059082 C74.62240234 346.40032227 74.62240234 346.40032227 74.31762695 347.5168457 C73.34619851 351.26621864 72.82914871 353.85865058 73.98364258 357.5559082 C75.68520508 357.5249707 75.68520508 357.5249707 77.42114258 357.4934082 C80.98364258 357.5559082 80.98364258 357.5559082 81.98364258 358.5559082 C82.05544222 360.07518858 82.06756265 361.59758302 82.04614258 363.1184082 C82.03711914 363.94469727 82.0280957 364.77098633 82.01879883 365.62231445 C82.00139648 366.57944336 82.00139648 366.57944336 81.98364258 367.5559082 C77.21231205 370.37379988 72.37478505 370.09182296 66.98364258 369.5559082 C63.9029041 368.1727195 62.34518588 366.91745151 59.98364258 364.5559082 C57.20487867 355.61298492 60.63926986 346.2290811 62.98364258 337.5559082 C61.33364258 336.8959082 59.68364258 336.2359082 57.98364258 335.5559082 C58.64364258 332.2559082 59.30364258 328.9559082 59.98364258 325.5559082 C62.29364258 325.5559082 64.60364258 325.5559082 66.98364258 325.5559082 C66.98364258 324.2359082 66.98364258 322.9159082 66.98364258 321.5559082 C64.19141099 322.53348821 61.39984486 323.51289743 58.60864258 324.4934082 C57.81458008 324.77120117 57.02051758 325.04899414 56.20239258 325.33520508 C55.4418457 325.60268555 54.68129883 325.87016602 53.89770508 326.14575195 C53.19597168 326.39188232 52.49423828 326.6380127 51.77124023 326.89160156 C49.91859163 327.54358585 49.91859163 327.54358585 47.98364258 328.5559082 C48.94270508 329.7005957 48.94270508 329.7005957 49.92114258 330.8684082 C54.81179618 338.25166206 53.01606528 349.32260942 52.54614258 357.7434082 C52.49393555 358.79077148 52.44172852 359.83813477 52.38793945 360.91723633 C52.26002504 363.46389602 52.12517245 366.00997524 51.98364258 368.5559082 C47.77578116 370.15890303 44.4654838 370.65634162 39.98364258 370.5559082 C39.95858643 369.68788574 39.93353027 368.81986328 39.90771484 367.92553711 C39.81264774 364.70877658 39.71341054 361.49217972 39.61132812 358.27563477 C39.56798411 356.88278231 39.52630862 355.48987689 39.48632812 354.09692383 C39.42861326 352.0961417 39.36442389 350.09554962 39.30004883 348.0949707 C39.26339111 346.89050293 39.2267334 345.68603516 39.18896484 344.44506836 C39.17311271 341.61594454 39.17311271 341.61594454 37.98364258 339.5559082 C33.7701591 339.96618232 33.7701591 339.96618232 30.17114258 341.9934082 C27.72222332 345.21567039 27.71822789 347.88404564 27.44848633 351.8762207 C27.36147461 353.13305664 27.27446289 354.38989258 27.18481445 355.68481445 C27.09683198 357.01683964 27.00894256 358.34887098 26.92114258 359.6809082 C26.8297363 361.02077866 26.73794417 362.36062285 26.64575195 363.70043945 C26.42124324 366.98535647 26.2007113 370.27049251 25.98364258 373.5559082 C21.50612013 375.26163104 18.99997176 375.5559082 13.98364258 375.5559082 C13.65364258 364.3359082 13.32364258 353.1159082 12.98364258 341.5559082 C10.01364258 343.0409082 10.01364258 343.0409082 6.98364258 344.5559082 C6.32364258 344.5559082 5.66364258 344.5559082 4.98364258 344.5559082 C5.31364258 345.2159082 5.64364258 345.8759082 5.98364258 346.5559082 C6.47717303 351.96047121 6.69198204 356.89285033 4.54614258 361.9309082 C1.67437352 364.87272041 -1.31551427 366.99699371 -4.79760742 369.16137695 C-6.96460284 370.52337936 -8.98979727 371.99453572 -11.01635742 373.5559082 C-8.41187075 374.27937672 -6.54549052 374.68041011 -3.89135742 374.0559082 C-1.00421132 371.74619133 -0.29101421 368.99748154 0.98364258 365.5559082 C8.41221401 365.41305106 8.41221401 365.41305106 11.98364258 366.5559082 C11.12649972 375.12733677 11.12649972 375.12733677 8.98364258 378.5559082 C8.32364258 378.5559082 7.66364258 378.5559082 6.98364258 378.5559082 C6.7490332 379.15918945 6.51442383 379.7624707 6.27270508 380.3840332 C3.84011159 384.48258466 -0.68579099 385.95340785 -5.01635742 387.5559082 C-10.52581212 388.61655189 -15.2305984 387.39191355 -20.01635742 384.5559082 C-26.35985801 378.21240761 -28.09207824 371.80296226 -28.14135742 363.0559082 C-28.10972575 361.55566304 -28.07166902 360.05546705 -28.01635742 358.5559082 C-28.7872168 358.9168457 -29.55807617 359.2777832 -30.35229492 359.6496582 C-31.35518555 360.1137207 -32.35807617 360.5777832 -33.39135742 361.0559082 C-34.3890918 361.5199707 -35.38682617 361.9840332 -36.41479492 362.4621582 C-39.01635742 363.5559082 -39.01635742 363.5559082 -41.01635742 363.5559082 C-41.01635742 366.1959082 -41.01635742 368.8359082 -41.01635742 371.5559082 C-40.15010742 371.4734082 -39.28385742 371.3909082 -38.39135742 371.3059082 C-34.11276606 371.6228409 -32.30712402 372.83744884 -29.01635742 375.5559082 C-24.84243668 380.9707243 -23.57017908 385.45691162 -23.68041992 392.19262695 C-25.2293507 403.08917487 -37.80344455 411.3634124 -45.69604492 417.6730957 C-48.03025673 419.50078759 -48.03025673 419.50078759 -50.01635742 421.5559082 C-51.33635742 421.5559082 -52.65635742 421.5559082 -54.01635742 421.5559082 C-54.32186523 420.98227539 -54.62737305 420.40864258 -54.94213867 419.81762695 C-58.34166753 413.50695226 -61.89896398 407.30613522 -65.51635742 401.1184082 C-69.17974984 394.84279345 -72.66194852 388.55933658 -75.79760742 382.0012207 C-76.99311106 379.47321553 -76.99311106 379.47321553 -78.73510742 376.9855957 C-80.01635742 374.5559082 -80.01635742 374.5559082 -79.94995117 372.4777832 C-78.73212574 369.97079528 -77.20187846 368.60260594 -75.07885742 366.8059082 C-74.36858398 366.19231445 -73.65831055 365.5787207 -72.92651367 364.9465332 C-71.01635742 363.5559082 -71.01635742 363.5559082 -69.01635742 363.5559082 C-69.01635742 362.8959082 -69.01635742 362.2359082 -69.01635742 361.5559082 C-65.02426766 357.55438087 -61.27649013 354.37238231 -55.51635742 354.1184082 C-51.93054855 353.49909752 -51.10468197 352.67367427 -48.87182617 349.6965332 C-46.82750202 346.24702566 -45.04434006 342.66981875 -43.2746582 339.07348633 C-41.95757916 336.43830606 -40.57294717 333.84874263 -39.16870117 331.2590332 C-12.74145526 282.28748254 3.43009058 227.92674436 6.81616211 172.28198242 C6.97506153 169.6955816 7.16269782 167.1126794 7.35473633 164.52856445 C9.2768285 136.11685268 7.47785858 106.59812674 3.17114258 78.4934082 C3.03023193 77.51178711 2.88932129 76.53016602 2.74414062 75.51879883 C1.49602416 68.01576139 -0.78213385 62.34053119 -6.62963867 57.3059082 C-7.52038086 56.7284082 -8.41112305 56.1509082 -9.32885742 55.5559082 C-18.3966579 49.29888146 -24.50648073 43.08553827 -28.01635742 32.5559082 C-29.20077293 21.97383522 -25.33935332 14.09115478 -19.57885742 5.46606445 C-14.29217708 -0.99690226 -7.73212948 -0.00248808 0 0 Z M-9.32885742 18.0559082 C-12.44265051 22.668935 -12.66406246 27.15219762 -12.01635742 32.5559082 C-9.59537764 37.68838533 -6.26210049 40.59013501 -1.01635742 42.5559082 C3.95958474 43.26675708 7.26004436 42.4696765 11.40942383 39.8215332 C14.86089416 37.04665383 16.56951823 33.82588952 17.92114258 29.6809082 C18.01827226 24.82442426 16.87276808 20.59576181 13.51489258 16.9699707 C9.29172867 13.38856209 6.62988267 12.25053472 1.07739258 12.34106445 C-3.47694463 12.80839383 -6.28531837 14.76559571 -9.32885742 18.0559082 Z M91.10864258 132.3684082 C89.49400977 135.507972 89.10524604 138.02940777 88.98364258 141.5559082 C90.63178654 146.22564943 92.76188349 148.96528331 96.98364258 151.5559082 C100.98451782 152.647056 103.22669314 152.80822468 107.17114258 151.4934082 C111.4057846 148.57621037 113.39603528 145.43625157 114.92114258 140.5559082 C115.00167499 136.69035234 114.08808515 134.78272014 111.98364258 131.5559082 C109.25651445 128.75302652 107.36701215 127.66949919 103.60864258 126.5559082 C98.17262323 126.5559082 95.04687179 128.5614533 91.10864258 132.3684082 Z M256.98364258 179.5559082 C253.90752069 182.96458381 252.11322864 185.20821312 251.67114258 189.8059082 C252.10471568 195.00878542 254.26045377 197.64125397 257.67114258 201.4309082 C261.39328694 203.24168113 264.93281622 203.18181714 268.98364258 202.5559082 C272.72758881 200.75326742 274.53683933 199.19008055 276.92114258 195.8059082 C278.23615623 191.7835135 278.28595871 188.54226612 276.98364258 184.5559082 C275.08248217 181.23618964 272.82273034 179.00615042 269.42114258 177.1809082 C264.32558482 175.87435493 261.35008629 176.91784846 256.98364258 179.5559082 Z M309.98364258 297.5559082 C305.52145291 302.24692811 304.51979582 305.60228613 304.56567383 311.94262695 C305.2543062 316.24818824 307.6574806 318.87056643 310.98364258 321.5559082 C314.79197805 323.77681617 317.5570259 324.00607261 321.98364258 323.5559082 C327.22901748 321.62455678 330.57372181 318.66494023 332.98364258 313.5559082 C333.95498603 309.33369753 333.84838588 306.08423095 331.69067383 302.27075195 C328.44489476 298.17824791 325.2776328 295.39548622 320.03442383 294.5402832 C316.26993661 294.56896501 313.19310784 295.62026618 309.98364258 297.5559082 Z M-14.01635742 353.5559082 C-15.53072142 356.24046255 -16.20418384 357.67567085 -15.55541992 360.71606445 C-15.3775293 361.32321289 -15.19963867 361.93036133 -15.01635742 362.5559082 C-9.4207941 359.60369983 -9.4207941 359.60369983 -5.45385742 354.8684082 C-4.77165857 352.54056813 -4.77165857 352.54056813 -6.01635742 350.5559082 C-9.69353835 350.5559082 -11.08711931 351.37775679 -14.01635742 353.5559082 Z M-54.26635742 368.4934082 C-57.01635742 369.5559082 -57.01635742 369.5559082 -59.64135742 369.9309082 C-62.65065308 370.72282811 -63.42398126 371.95782078 -65.01635742 374.5559082 C-63.69635742 377.1959082 -62.37635742 379.8359082 -61.01635742 382.5559082 C-55.0599464 379.60960631 -55.0599464 379.60960631 -51.01635742 374.5559082 C-50.97613351 372.2229216 -50.97315495 369.88884155 -51.01635742 367.5559082 C-52.26876127 367.49180564 -52.26876127 367.49180564 -54.26635742 368.4934082 Z M-47.76635742 385.9309082 C-48.37995117 386.37176758 -48.99354492 386.81262695 -49.62573242 387.2668457 C-50.08463867 387.69223633 -50.54354492 388.11762695 -51.01635742 388.5559082 C-51.01635742 389.2159082 -51.01635742 389.8759082 -51.01635742 390.5559082 C-52.00635742 390.8859082 -52.99635742 391.2159082 -54.01635742 391.5559082 C-53.48607947 396.06327081 -51.82024467 399.0098155 -49.01635742 402.5559082 C-45.25746928 402.5559082 -44.60317427 401.6050742 -41.89135742 399.1184082 C-41.1875293 398.48032227 -40.48370117 397.84223633 -39.75854492 397.18481445 C-36.97182343 394.82797685 -36.97182343 394.82797685 -36.76635742 390.6809082 C-36.80466809 388.00873898 -36.8306062 386.85311016 -38.26635742 384.5559082 C-41.99944785 382.42271367 -44.63628412 383.61679418 -47.76635742 385.9309082 Z " fill="#00FEFB" transform="translate(256.016357421875,-0.555908203125)"/>
<path d="M0 0 C3.43219931 2.64436913 5.71775498 5.07337098 6.359375 9.453125 C6.37333059 11.6720637 6.26952182 13.79890512 6 16 C3.47524538 17.26237731 1.68799534 17.09856404 -1.125 17.0625 C-2.03507812 17.05347656 -2.94515625 17.04445313 -3.8828125 17.03515625 C-4.93082031 17.01775391 -4.93082031 17.01775391 -6 17 C-6.268125 15.88625 -6.53625 14.7725 -6.8125 13.625 C-7.65809019 9.78159049 -7.65809019 9.78159049 -11 8 C-16.73383153 8.1051699 -16.73383153 8.1051699 -21.375 11.0625 C-21.91125 11.701875 -22.4475 12.34125 -23 13 C-23.66 13 -24.32 13 -25 13 C-27.021829 17.04365799 -27.19150921 19.63113288 -26 24 C-21.43890128 26.28054936 -15.84378356 24.77500537 -11 24 C-8.70620251 27.44069624 -8 28.72290301 -8 33 C5.32327977 24.06982494 5.32327977 24.06982494 18.1875 14.5 C22.64530272 10.99988379 27.11625727 7.87278984 32 5 C38.17761989 8.5062167 38.17761989 8.5062167 40 11 C40.44921875 13.33203125 40.44921875 13.33203125 40 16 C37.375 18.23828125 37.375 18.23828125 34 20.3125 C32.88625 21.00988281 31.7725 21.70726562 30.625 22.42578125 C29.75875 22.94527344 28.8925 23.46476562 28 24 C28.67546875 24.29132813 29.3509375 24.58265625 30.046875 24.8828125 C35.51398128 27.39515325 39.46651559 29.2420809 42 35 C42.59554929 39.16884505 42.35393272 41.30629186 40.4375 45.0625 C37.57535662 48.51174972 34.52893477 51.27444836 31 54 C30.48550293 54.40895508 29.97100586 54.81791016 29.44091797 55.23925781 C27.66484779 56.64102183 25.86707601 58.0101785 24.0625 59.375 C23.48967285 59.82842773 22.9168457 60.28185547 22.32666016 60.74902344 C17.75015605 64.12227272 14.66699853 64.65592997 9 64 C6 61.6875 6 61.6875 4 59 C4 58.01 4 57.02 4 56 C5.78833008 54.421875 5.78833008 54.421875 8.26953125 52.75 C9.15833984 52.1415625 10.04714844 51.533125 10.96289062 50.90625 C11.90326172 50.2771875 12.84363281 49.648125 13.8125 49 C15.65413796 47.75264494 17.49405456 46.50274368 19.33203125 45.25 C20.15421143 44.69828125 20.9763916 44.1465625 21.82348633 43.578125 C23.75924318 42.17456557 25.37413166 40.74512278 27 39 C26.01 36.525 26.01 36.525 25 34 C19.37761295 32.76307485 16.93379984 33.13804493 12 36 C8.3270496 38.56125755 4.74641393 41.2492665 1.18945312 43.96875 C0.46564453 44.49984375 -0.25816406 45.0309375 -1.00390625 45.578125 C-1.65174072 46.06700195 -2.2995752 46.55587891 -2.96704102 47.05957031 C-5.71481677 48.33066821 -7.16096111 47.9298972 -10 47 C-12.875 44.6875 -12.875 44.6875 -15 42 C-14.6328125 39.83203125 -14.6328125 39.83203125 -14 38 C-15.2684375 37.96132813 -15.2684375 37.96132813 -16.5625 37.921875 C-24.28479523 37.53576024 -30.78848104 37.03208081 -36.55859375 31.5078125 C-40.19314386 27.36874977 -41.4309908 23.82183262 -41.33984375 18.3125 C-40.19952529 10.55309162 -35.16739012 3.63519926 -29 -1 C-20.02734396 -6.33406304 -8.75515395 -5.16447127 0 0 Z " fill="#164A4B" transform="translate(421,351)"/>
<path d="M0 0 C0.33 0.66 0.66 1.32 1 2 C-0.328125 4.4609375 -0.328125 4.4609375 -2.25 7.375 C-2.87390625 8.33148438 -3.4978125 9.28796875 -4.140625 10.2734375 C-6.83657942 14.22674882 -9.55306987 17.67192953 -13 21 C-12.505 21.763125 -12.01 22.52625 -11.5 23.3125 C-10 26 -10 26 -10 29 C-8.68388323 28.04663979 -7.37221039 27.08714226 -6.0625 26.125 C-5.33160156 25.59132813 -4.60070312 25.05765625 -3.84765625 24.5078125 C-1.62178256 22.69134898 -1.09701383 21.66352668 -0.68359375 18.8359375 C-0.56177734 17.61777344 -0.56177734 17.61777344 -0.4375 16.375 C-0.35371094 15.55773437 -0.26992187 14.74046875 -0.18359375 13.8984375 C-0.09271484 12.95871094 -0.09271484 12.95871094 0 12 C3.78187881 10.16308743 5.94568308 9.84162374 10 11 C10 13.31 10 15.62 10 18 C11.299375 17.87625 11.299375 17.87625 12.625 17.75 C16.90359136 18.06693269 18.7092334 19.28154063 22 22 C26.17392074 27.4148161 27.44617834 31.90100342 27.3359375 38.63671875 C25.78700672 49.53326666 13.21291287 57.8075042 5.3203125 64.1171875 C2.98610069 65.94487939 2.98610069 65.94487939 1 68 C-0.32 68 -1.64 68 -3 68 C-3.30550781 67.42636719 -3.61101562 66.85273438 -3.92578125 66.26171875 C-7.3253101 59.95104406 -10.88260656 53.75022701 -14.5 47.5625 C-18.16339242 41.28688524 -21.6455911 35.00342838 -24.78125 28.4453125 C-25.97675364 25.91730732 -25.97675364 25.91730732 -27.71875 23.4296875 C-29 21 -29 21 -28.93359375 18.921875 C-27.71576832 16.41488708 -26.18552104 15.04669773 -24.0625 13.25 C-23.35222656 12.63640625 -22.64195312 12.0228125 -21.91015625 11.390625 C-20 10 -20 10 -18 10 C-18 9.34 -18 8.68 -18 8 C-16.1015625 6.30859375 -16.1015625 6.30859375 -13.625 4.4375 C-12.81289062 3.81746094 -12.00078125 3.19742187 -11.1640625 2.55859375 C-7.3028054 -0.22234774 -4.73713993 -0.08772481 0 0 Z M3.25 32.375 C2.63640625 32.81585938 2.0228125 33.25671875 1.390625 33.7109375 C0.93171875 34.13632812 0.4728125 34.56171875 0 35 C0 35.66 0 36.32 0 37 C-0.99 37.33 -1.98 37.66 -3 38 C-2.46972205 42.5073626 -0.80388725 45.4539073 2 49 C5.75888814 49 6.41318315 48.049166 9.125 45.5625 C9.82882813 44.92441406 10.53265625 44.28632813 11.2578125 43.62890625 C14.04453399 41.27206864 14.04453399 41.27206864 14.25 37.125 C14.21168933 34.45283078 14.18575122 33.29720196 12.75 31 C9.01690957 28.86680547 6.3800733 30.06088598 3.25 32.375 Z " fill="#114747" transform="translate(205,353)"/>
<path d="M0 0 C3.54399697 2.16746596 5.58923737 4.58025442 7.375 8.375 C7.9947472 12.71323043 7.7092226 14.75430088 5.625 18.625 C2.76131851 22.12505516 0.65909802 23.94696733 -3.625 25.375 C-10.57566551 25.77889002 -17.05934692 25.8180337 -23.625 23.375 C-22.54244593 25.93190423 -22.54244593 25.93190423 -20.625 28.375 C-17.44207218 29.39082803 -15.6164942 29.85572446 -12.5625 28.375 C-11.923125 28.045 -11.28375 27.715 -10.625 27.375 C-7.3829358 27.53710321 -5.87250369 28.19262886 -3.25 30.125 C-1.625 32.375 -1.625 32.375 -1.5625 34.9375 C-2.96801318 38.16191258 -4.47362553 38.90924443 -7.625 40.375 C-15.09937433 42.58055308 -22.64002635 41.77932696 -29.625 38.375 C-33.86997042 34.94289626 -36.2442466 31.85617397 -36.84375 26.375 C-37.18779436 18.11793526 -35.18361894 11.8579971 -29.875 5.5 C-22.17869888 -2.46025368 -10.35037716 -4.64116349 0 0 Z M-18.625 11.375 C-18.295 12.365 -17.965 13.355 -17.625 14.375 C-16.18965159 14.5976746 -14.75154475 14.80261906 -13.3125 15 C-12.51199219 15.11601562 -11.71148437 15.23203125 -10.88671875 15.3515625 C-8.33776785 15.59033407 -8.33776785 15.59033407 -5.625 13.375 C-5.955 12.055 -6.285 10.735 -6.625 9.375 C-11.69104612 8.0481784 -14.15328892 8.71326722 -18.625 11.375 Z " fill="#13494A" transform="translate(378.625,332.625)"/>
<path d="M0 0 C4.59433484 2.78222668 8.26931297 7.1126264 9.9609375 12.1875 C10.62228239 19.50566066 10.70184423 26.23380318 5.9609375 32.1875 C0.54425247 37.11175912 -4.2219266 38.49068353 -11.47265625 38.40625 C-17.2552722 37.9133634 -21.89578854 35.21568302 -26.0390625 31.1875 C-29.3358421 26.2423306 -30.19308523 21.04942402 -30.0390625 15.1875 C-28.97619963 10.13670536 -26.80018712 5.7506707 -23.0390625 2.1875 C-15.50562082 -2.35340852 -8.270713 -3.39981878 0 0 Z " fill="#00FDFB" transform="translate(441.0390625,314.8125)"/>
<path d="M0 0 C4.95649767 4.7023183 4.70206657 10.47179828 5 17 C4.97685886 21.07121172 4.78931569 25.12306715 4.5625 29.1875 C4.51029297 30.23486328 4.45808594 31.28222656 4.40429688 32.36132812 C4.27638246 34.90798782 4.14152987 37.45406703 4 40 C-0.20786142 41.60299483 -3.51815878 42.10043342 -8 42 C-8.02505615 41.13197754 -8.0501123 40.26395508 -8.07592773 39.36962891 C-8.17099484 36.15286837 -8.27023203 32.93627151 -8.37231445 29.71972656 C-8.41565846 28.3268741 -8.45733396 26.93396869 -8.49731445 25.54101562 C-8.55502932 23.54023349 -8.61921869 21.53964141 -8.68359375 19.5390625 C-8.72025146 18.33459473 -8.75690918 17.13012695 -8.79467773 15.88916016 C-8.81052987 13.06003633 -8.81052987 13.06003633 -10 11 C-14.21348348 11.41027412 -14.21348348 11.41027412 -17.8125 13.4375 C-20.26141926 16.65976218 -20.26541469 19.32813744 -20.53515625 23.3203125 C-20.66567383 25.20556641 -20.66567383 25.20556641 -20.79882812 27.12890625 C-20.8868106 28.46093144 -20.97470002 29.79296277 -21.0625 31.125 C-21.15390628 32.46487045 -21.2456984 33.80471464 -21.33789062 35.14453125 C-21.56239934 38.42944827 -21.78293128 41.71458431 -22 45 C-26.17737474 46.59138085 -29.53160785 47.21278058 -34 47 C-34.12391876 42.24952648 -34.21448561 37.50000039 -34.2746582 32.74829102 C-34.29974959 31.13321539 -34.33383126 29.51825274 -34.37719727 27.90356445 C-34.43809286 25.57735294 -34.46626124 23.25264641 -34.48828125 20.92578125 C-34.51408768 20.20787918 -34.5398941 19.48997711 -34.56648254 18.75032043 C-34.56860532 14.92623433 -34.14801631 13.18949199 -31.76953125 10.14453125 C-29.23315497 8.1805389 -27.1735692 6.90661828 -24.19921875 5.76171875 C-23.30396484 5.41689453 -22.40871094 5.07207031 -21.48632812 4.71679688 C-20.56271484 4.37712891 -19.63910156 4.03746094 -18.6875 3.6875 C-17.77548828 3.32849609 -16.86347656 2.96949219 -15.92382812 2.59960938 C-10.39023055 0.51707265 -5.91624478 -0.6367259 0 0 Z " fill="#12494A" transform="translate(304,328)"/>
<path d="M0 0 C1.78072742 1.78072742 1.25615294 4.27643877 1.3125 6.6875 C1.23649796 12.0393106 0.86519316 15.04053384 -3 19 C-5.20705425 20.64010453 -7.44593888 22.15389694 -9.78125 23.60546875 C-11.94824542 24.96747115 -13.97343984 26.43862752 -16 28 C-13.39551333 28.72346852 -11.5291331 29.12450191 -8.875 28.5 C-5.9878539 26.19028312 -5.27465679 23.44157334 -4 20 C3.42857143 19.85714286 3.42857143 19.85714286 7 21 C6.14285714 29.57142857 6.14285714 29.57142857 4 33 C3.34 33 2.68 33 2 33 C1.76539063 33.60328125 1.53078125 34.2065625 1.2890625 34.828125 C-1.14353099 38.92667645 -5.66943357 40.39749965 -10 42 C-15.50945469 43.06064368 -20.21424098 41.83600535 -25 39 C-29.63191708 34.36808292 -32.20785961 29.48336443 -33 23 C-33.09410156 22.23171875 -33.18820313 21.4634375 -33.28515625 20.671875 C-33.56388253 16.35519114 -33.4558611 14.595152 -30.75 11.0625 C-25.12820513 6.84615385 -25.12820513 6.84615385 -21.25 7.375 C-20.5075 7.58125 -19.765 7.7875 -19 8 C-19.33 10.64 -19.66 13.28 -20 16 C-18.67870176 15.265611 -17.36816829 14.51183106 -16.0625 13.75 C-15.33160156 13.33234375 -14.60070312 12.9146875 -13.84765625 12.484375 C-11.64183329 10.71225507 -11.34533034 9.76264269 -11 7 C-10.96213099 5.33376361 -10.95372155 3.66602403 -11 2 C-7.18009548 0.20239787 -4.21571713 -0.28743526 0 0 Z " fill="#12494A" transform="translate(261,345)"/>
<path d="M0 0 C2.75 0.8125 2.75 0.8125 3.75 1.8125 C3.79080783 3.81208364 3.79254356 5.81295254 3.75 7.8125 C7.05 8.1425 10.35 8.4725 13.75 8.8125 C13.42 11.7825 13.09 14.7525 12.75 17.8125 C8.60797918 19.82075252 5.31038309 19.89844362 0.75 19.8125 C0.05081695 22.39317563 -0.63461049 24.97622847 -1.3125 27.5625 C-1.51166016 28.29210937 -1.71082031 29.02171875 -1.91601562 29.7734375 C-2.88744407 33.52281044 -3.40449387 36.11524238 -2.25 39.8125 C-0.5484375 39.7815625 -0.5484375 39.7815625 1.1875 39.75 C4.75 39.8125 4.75 39.8125 5.75 40.8125 C5.82179964 42.33178038 5.83392007 43.85417482 5.8125 45.375 C5.80347656 46.20128906 5.79445313 47.02757812 5.78515625 47.87890625 C5.77355469 48.51699219 5.76195312 49.15507812 5.75 49.8125 C0.97866947 52.63039168 -3.85885753 52.34841476 -9.25 51.8125 C-12.33073848 50.4293113 -13.8884567 49.1740433 -16.25 46.8125 C-19.02876391 37.86957672 -15.59437272 28.48567289 -13.25 19.8125 C-15.725 18.8225 -15.725 18.8225 -18.25 17.8125 C-17.59 14.5125 -16.93 11.2125 -16.25 7.8125 C-13.94 7.8125 -11.63 7.8125 -9.25 7.8125 C-9.188125 7.235 -9.12625 6.6575 -9.0625 6.0625 C-7.45375777 1.60752151 -4.66483342 -0.26912501 0 0 Z " fill="#134A4B" transform="translate(332.25,317.1875)"/>
<path d="M0 0 C61.38 0 122.76 0 186 0 C187.19502075 10.75518672 187.19502075 10.75518672 185 14 C178.91505576 17.96228927 172.31971435 18.13366433 165.2358551 18.08229065 C164.59283996 18.07906152 163.94982482 18.07583239 163.28732437 18.07250541 C161.15315586 18.06053285 159.01912256 18.04113992 156.88500977 18.02172852 C155.34705388 18.01157482 153.8090949 18.00188235 152.27113342 17.99261475 C148.11048063 17.96624291 143.94990072 17.93344162 139.78930402 17.89946485 C135.43580986 17.86501325 131.08227683 17.83650395 126.72874451 17.80735779 C118.49118979 17.75130917 110.25368374 17.68993515 102.01618189 17.62663645 C92.63533174 17.55481216 83.25444272 17.48894199 73.87354577 17.42356598 C54.58231321 17.28899119 35.29114199 17.14695857 16 17 C16 16.67 16 16.34 16 16 C16.82422014 15.99761165 17.64844028 15.99522329 18.4976368 15.99276257 C38.55334393 15.93362488 58.60893078 15.85808266 78.66450691 15.76428509 C88.36324095 15.71932079 98.06193822 15.67990756 107.76074219 15.65356445 C116.21428539 15.63058954 124.66771228 15.59719714 133.12116325 15.55129844 C137.59715175 15.52735941 142.07302502 15.50863508 146.54907608 15.50238609 C150.76309257 15.49633832 154.97681418 15.47634964 159.19072151 15.44572449 C160.73623545 15.43693933 162.28178792 15.43322268 163.82732582 15.43499184 C165.94065382 15.43664696 168.05308542 15.41992658 170.16629028 15.39872742 C171.34802889 15.39411845 172.52976749 15.38950949 173.74731636 15.38476086 C177.58943651 14.93027539 181.19048827 13.80951173 184 11 C184 7.7 184 4.4 184 1 C123.28 1 62.56 1 0 1 C0 0.67 0 0.34 0 0 Z " fill="#F4F6F6" transform="translate(60,152)"/>
<path d="M0 0 C0.66 0.33 1.32 0.66 2 1 C-2.47808914 54.3510275 -22.65397323 106.54912213 -49 152.75 C-49.46921875 153.57935059 -49.9384375 154.40870117 -50.421875 155.26318359 C-50.86015625 156.01680176 -51.2984375 156.77041992 -51.75 157.546875 C-52.13671875 158.21557617 -52.5234375 158.88427734 -52.921875 159.57324219 C-53.45554688 160.2794873 -53.45554688 160.2794873 -54 161 C-54.66 161 -55.32 161 -56 161 C-54.62511182 157.37317506 -53.00271311 154.02720423 -51.12890625 150.6328125 C-50.56010742 149.59447266 -49.99130859 148.55613281 -49.40527344 147.48632812 C-48.7971582 146.37708984 -48.18904297 145.26785156 -47.5625 144.125 C-22.90181829 98.60343346 -7.46585456 51.23559973 0 0 Z " fill="#01F2F1" transform="translate(261,193)"/>
<path d="M0 0 C0.99 0.495 0.99 0.495 2 1 C3.0409902 4.49597102 3.23660304 6.40213267 1.8828125 9.82299805 C1.30273438 10.79277588 0.72265625 11.76255371 0.125 12.76171875 C-0.52291504 13.86676758 -1.17083008 14.97181641 -1.83837891 16.11035156 C-2.5588691 17.30276469 -3.27941084 18.49514668 -4 19.6875 C-5.11281925 21.57117099 -6.21964685 23.45828721 -7.3265686 25.34542847 C-8.08708698 26.64064829 -8.84962325 27.93468524 -9.61410522 29.22756958 C-13.41602805 35.66374158 -17.0257794 42.19829375 -20.625 48.75 C-25.85518581 58.22218929 -31.23216 67.59424359 -36.71777344 76.92041016 C-42.52211963 86.82126637 -48.06998692 96.85843198 -53.62109375 106.90234375 C-57.34671473 113.64083115 -61.14406904 120.33527587 -65 127 C-66.65 126.67 -68.3 126.34 -70 126 C-69.38125 125.95875 -68.7625 125.9175 -68.125 125.875 C-67.42375 125.58625 -66.7225 125.2975 -66 125 C-65.72929687 124.17371094 -65.45859375 123.34742188 -65.1796875 122.49609375 C-63.66851629 118.01762278 -61.40575709 114.23912734 -59 110.1875 C-58.51378174 109.35798828 -58.02756348 108.52847656 -57.52661133 107.67382812 C-56.02359062 105.1123867 -54.51283361 102.55565586 -53 100 C-51.64826405 97.71182901 -50.29711767 95.42331608 -48.94726562 93.1340332 C-48.1423384 91.77049273 -47.33525839 90.40821929 -46.52539062 89.04760742 C-43.77691621 84.40690502 -41.17651229 79.69526962 -38.60473633 74.95458984 C-30.79827588 60.58158143 -22.82419363 46.30375984 -14.5625 32.1875 C-13.98419434 31.19669434 -13.40588867 30.20588867 -12.81005859 29.18505859 C-10.353396 24.98408744 -7.88368831 20.79421845 -5.34765625 16.640625 C-4.77325806 15.68313354 -4.77325806 15.68313354 -4.18725586 14.70629883 C-3.22163409 13.09840876 -2.24056071 11.49982358 -1.2578125 9.90234375 C0.24845001 6.42671317 0.23403137 3.74918259 0 0 Z " fill="#00F3F2" transform="translate(336,159)"/>
<path d="M0 0 C-0.51949219 0.268125 -1.03898437 0.53625 -1.57421875 0.8125 C-7.01082432 3.86745027 -10.7663791 7.05401843 -13 13 C-13.98487109 19.12703459 -13.2190281 23.63495316 -10 29 C-10 29.66 -10 30.32 -10 31 C-9.4225 31.28875 -8.845 31.5775 -8.25 31.875 C-6.87436883 32.56281558 -5.51433155 33.28470219 -4.1875 34.0625 C0.96485843 36.27065361 5.78595278 36.34018445 11.078125 34.78125 C15.79161737 32.86519619 18.87855327 29.90339474 20.9375 25.3125 C22.80673958 19.56267533 21.87970774 13.63912323 20 8 C20.99 8.33 21.98 8.66 23 9 C25.04021328 15.12063983 25.09323014 22.49048038 22.4375 28.4375 C19.57990751 33.33622999 15.3071042 36.23096527 10 38 C2.08148423 38.71986507 -3.09164108 37.57596383 -9.75 33.1875 C-14.38255679 28.68362534 -15.60460472 23.79465019 -16.06640625 17.52734375 C-15.90637874 11.43688498 -13.28124331 6.28124331 -9 2 C-3.71223022 -1.23741007 -3.71223022 -1.23741007 0 0 Z " fill="#07EBE9" transform="translate(427,315)"/>
<path d="M0 0 C0.66 0 1.32 0 2 0 C-0.03990158 6.81003728 -2.78524911 13.04313855 -6 19.375 C-6.47622803 20.31875488 -6.95245605 21.26250977 -7.44311523 22.23486328 C-10.82829675 28.86992996 -14.36589774 35.40842034 -18.0625 41.875 C-18.52720703 42.69532715 -18.99191406 43.5156543 -19.47070312 44.36083984 C-19.90447266 45.10543457 -20.33824219 45.8500293 -20.78515625 46.6171875 C-21.16551025 47.27315918 -21.54586426 47.92913086 -21.93774414 48.60498047 C-22.46356079 49.29551514 -22.46356079 49.29551514 -23 50 C-23.66 50 -24.32 50 -25 50 C-23.6082137 46.32381902 -21.95388911 42.93427229 -20.05859375 39.4921875 C-19.47867676 38.43112793 -18.89875977 37.37006836 -18.30126953 36.27685547 C-17.68622559 35.15424316 -17.07118164 34.03163086 -16.4375 32.875 C-10.56702104 22.08245493 -5.09128839 11.17928403 0 0 Z " fill="#00F0EE" transform="translate(230,304)"/>
<path d="M0 0 C3.05967749 1.56906538 5.95292928 3.19874533 8 6 C8.44921875 8.33203125 8.44921875 8.33203125 8 11 C5.375 13.23828125 5.375 13.23828125 2 15.3125 C0.88625 16.00988281 -0.2275 16.70726562 -1.375 17.42578125 C-2.674375 18.20501953 -2.674375 18.20501953 -4 19 C-0.7 20.65 2.6 22.3 6 24 C6 24.66 6 25.32 6 26 C5.44699219 25.7009375 4.89398438 25.401875 4.32421875 25.09375 C1.04464173 23.55041964 -2.36375981 22.72191537 -5.85546875 21.78125 C-8 21 -8 21 -9 19 C-8.01 19 -7.02 19 -6 19 C-6 18.34 -6 17.68 -6 17 C-4.1015625 15.4921875 -4.1015625 15.4921875 -1.625 13.875 C-0.81289063 13.33617187 -0.00078125 12.79734375 0.8359375 12.2421875 C3 11 3 11 5 11 C5 10.34 5 9.68 5 9 C5.66 9 6.32 9 7 9 C4.68767578 6.43750025 4.68767578 6.43750025 2 4 C-0.83967231 4 -3.23735711 4.40267181 -6 5 C-2.25 1.125 -2.25 1.125 0 0 Z " fill="#21595A" transform="translate(453,356)"/>
<path d="M0 0 C2.25 -0.375 2.25 -0.375 5 0 C10.37443274 5.52372254 10.02556433 12.68481032 9.98193359 20.04956055 C9.87913636 23.09864328 9.73248455 26.14145508 9.5625 29.1875 C9.51029297 30.23486328 9.45808594 31.28222656 9.40429688 32.36132812 C9.27638246 34.90798782 9.14152987 37.45406703 9 40 C8.34 40 7.68 40 7 40 C6.97812622 38.53977417 6.97812622 38.53977417 6.95581055 37.05004883 C6.89766704 33.42484524 6.82043623 29.8002524 6.73754883 26.17553711 C6.70437468 24.60923199 6.67631942 23.04280949 6.65356445 21.47631836 C6.61987884 19.21938237 6.56755951 16.96351474 6.51171875 14.70703125 C6.50532883 14.01100296 6.4989389 13.31497467 6.49235535 12.59785461 C6.36202436 8.25018407 5.669163 5.45562336 3 2 C2.01 1.34 1.02 0.68 0 0 Z " fill="#125152" transform="translate(299,328)"/>
<path d="M0 0 C3.63 0 7.26 0 11 0 C10.67 2.97 10.34 5.94 10 9 C5.8794254 10.99785435 2.54805635 11.17835515 -2 11 C-3.485 17.435 -3.485 17.435 -5 24 C-7.40154602 20.39768097 -7.08561222 19.55528208 -6.3125 15.4375 C-6.14363281 14.46683594 -5.97476562 13.49617188 -5.80078125 12.49609375 C-5 10 -5 10 -2 8 C0.48046875 7.8046875 0.48046875 7.8046875 3.1875 7.875 C4.08855469 7.89304687 4.98960937 7.91109375 5.91796875 7.9296875 C6.60503906 7.95289063 7.29210937 7.97609375 8 8 C8 6.02 8 4.04 8 2 C5.36 2 2.72 2 0 2 C0 1.34 0 0.68 0 0 Z " fill="#125252" transform="translate(335,326)"/>
<path d="M0 0 C-0.66386719 0.43570313 -1.32773437 0.87140625 -2.01171875 1.3203125 C-9.77744145 6.55792401 -15.9192351 11.46452618 -18 21 C-18.4819669 27.08154595 -18.06561875 33.00589452 -17 39 C-19 38 -19 38 -19.66796875 36.3203125 C-21.88202642 26.9646703 -21.18750699 18.71894337 -16.5234375 10.2265625 C-14.16838764 6.78456655 -11.40189711 4.37196496 -8 2 C-7.0925 1.360625 -6.185 0.72125 -5.25 0.0625 C-3 -1 -3 -1 0 0 Z " fill="#00F5F3" transform="translate(349,111)"/>
<path d="M0 0 C0.33 1.32 0.66 2.64 1 4 C-0.11375 3.814375 -1.2275 3.62875 -2.375 3.4375 C-5.82568861 2.68319343 -5.82568861 2.68319343 -8 4 C-8.1546875 5.60875 -8.1546875 5.60875 -8.3125 7.25 C-9.14674931 11.80045076 -10.42401888 13.15546956 -14 16 C-16.98951623 17.49475812 -18.6469189 18 -22 18 C-22.74926071 14.33694766 -23.2380014 11.57644848 -22 8 C-22.66 7.67 -23.32 7.34 -24 7 C-21.525 7.495 -21.525 7.495 -19 8 C-19.33 10.64 -19.66 13.28 -20 16 C-18.67870176 15.265611 -17.36816829 14.51183106 -16.0625 13.75 C-15.33160156 13.33234375 -14.60070312 12.9146875 -13.84765625 12.484375 C-11.64183329 10.71225507 -11.34533034 9.76264269 -11 7 C-10.96213099 5.33376361 -10.95372155 3.66602403 -11 2 C-7.17010894 0.19769832 -4.21878192 -0.19622241 0 0 Z " fill="#0F5F5F" transform="translate(261,345)"/>
<path d="M0 0 C4.69489387 2.14153054 8.38110069 4.71487285 10.6875 9.4375 C11.13800661 12.51269728 11.06450254 15.35864589 10.6875 18.4375 C9.3675 18.7675 8.0475 19.0975 6.6875 19.4375 C7.0175 18.7775 7.3475 18.1175 7.6875 17.4375 C8.04443556 13.65398309 8.09244249 11.21057203 6.3125 7.8125 C-1.06246715 1.13991067 -7.79083195 -0.10435329 -17.6015625 0.26171875 C-18.49617188 0.31972656 -19.39078125 0.37773437 -20.3125 0.4375 C-14.04862547 -3.20428752 -6.63524526 -2.33889886 0 0 Z " fill="#14595A" transform="translate(416.3125,348.5625)"/>
<path d="M0 0 C1.5 1.375 1.5 1.375 3 3 C3 3.66 3 4.32 3 5 C3.99 5.33 4.98 5.66 6 6 C6.97312741 7.84558647 7.93446349 9.69898592 8.81640625 11.58984375 C10.9268988 15.88744739 13.49434174 19.92412923 16 24 C17.65 23.67 19.3 23.34 21 23 C19.75 25 19.75 25 18 27 C16.68 27 15.36 27 14 27 C13.6596875 26.36835938 13.319375 25.73671875 12.96875 25.0859375 C10.63114252 20.77131092 8.28228362 16.46777004 5.8203125 12.22265625 C5.45615234 11.59375488 5.09199219 10.96485352 4.71679688 10.31689453 C3.99524173 9.07482577 3.27004001 7.83486748 2.54101562 6.59716797 C0 2.21973608 0 2.21973608 0 0 Z " fill="#2D5D5D" transform="translate(188,394)"/>
<path d="M0 0 C0.66 0.33 1.32 0.66 2 1 C2.36078979 5.50987233 2.44740257 9.00793342 0.5625 13.1875 C-2.28077277 16.30816523 -5.21205151 18.38694298 -8.78125 20.60546875 C-10.94824542 21.96747115 -12.97343984 23.43862752 -15 25 C-14.67 25.66 -14.34 26.32 -14 27 C-14.99 26.67 -15.98 26.34 -17 26 C-17.6875 23.9375 -17.6875 23.9375 -18 22 C-17.39671875 21.73445313 -16.7934375 21.46890625 -16.171875 21.1953125 C-15.37265625 20.84210938 -14.5734375 20.48890625 -13.75 20.125 C-12.96109375 19.77695312 -12.1721875 19.42890625 -11.359375 19.0703125 C-5.97485963 16.79050376 -5.97485963 16.79050376 -3 12 C-2.649375 11.4225 -2.29875 10.845 -1.9375 10.25 C-0.54019308 6.89646338 -0.36096697 3.60966975 0 0 Z " fill="#115454" transform="translate(260,348)"/>
<path d="M0 0 C0.5775 0.226875 1.155 0.45375 1.75 0.6875 C1.23050781 1.0278125 0.71101563 1.368125 0.17578125 1.71875 C-6.60349071 6.43040667 -10.6002428 11.85244208 -13.25 19.6875 C-13.53121242 21.95046407 -13.73704889 24.22380662 -13.875 26.5 C-13.94976562 27.66144531 -14.02453125 28.82289062 -14.1015625 30.01953125 C-14.15054688 30.89996094 -14.19953125 31.78039063 -14.25 32.6875 C-14.91 32.3575 -15.57 32.0275 -16.25 31.6875 C-17.10992134 20.46074913 -13.35310823 11.37104981 -6.25 2.6875 C-2.94677419 -0.40927419 -2.94677419 -0.40927419 0 0 Z " fill="#00F4F2" transform="translate(244.25,0.3125)"/>
<path d="M0 0 C1 3 1 3 0.10375977 5.17651367 C-0.36231689 5.99869385 -0.82839355 6.82087402 -1.30859375 7.66796875 C-1.80810547 8.56064453 -2.30761719 9.45332031 -2.82226562 10.37304688 C-3.62180664 11.76620117 -3.62180664 11.76620117 -4.4375 13.1875 C-4.96666016 14.12787109 -5.49582031 15.06824219 -6.04101562 16.03710938 C-7.35173029 18.3633327 -8.67163717 20.68382345 -10 23 C-9.01 23.66 -8.02 24.32 -7 25 C-10.465 27.475 -10.465 27.475 -14 30 C-14.66 29.67 -15.32 29.34 -16 29 C-5.29949685 8.38009868 -5.29949685 8.38009868 0 0 Z " fill="#00F6F4" transform="translate(319,246)"/>
<path d="M0 0 C2.31 0 4.62 0 7 0 C6.34 0.66 5.68 1.32 5 2 C4.01 2 3.02 2 2 2 C1.66602213 4.87413125 1.66602213 4.87413125 2 8 C3.95050405 9.71322514 3.95050405 9.71322514 6 11 C5.74379316 12.6065676 5.46944129 14.2102483 5.1875 15.8125 C5.03667969 16.70582031 4.88585937 17.59914063 4.73046875 18.51953125 C3.94604607 21.18321256 3.11372201 22.25690322 1 24 C2 15.42857143 2 15.42857143 3 12 C0.525 11.01 0.525 11.01 -2 10 C-1.34 6.7 -0.68 3.4 0 0 Z " fill="#116161" transform="translate(316,325)"/>
<path d="M0 0 C1.794375 -0.00773437 1.794375 -0.00773437 3.625 -0.015625 C6.85804974 0.23882799 9.09417459 0.86312878 12 2.25 C9 3.25 9 3.25 6 2.25 C-1.21729028 1.54895747 -6.11108065 1.92344701 -12 6.25 C-12.721875 6.971875 -13.44375 7.69375 -14.1875 8.4375 C-16.14688964 10.39688964 -17.29768441 10.86395492 -20 11.25 C-18.2007234 6.39195317 -14.27795785 3.39094607 -9.73828125 1.1171875 C-6.38731997 0.05597009 -3.51173491 -0.01513679 0 0 Z " fill="#115A5B" transform="translate(367,330.75)"/>
<path d="M0 0 C0.66 0.33 1.32 0.66 2 1 C1.28082397 1.52956299 1.28082397 1.52956299 0.54711914 2.06982422 C-1.61753637 3.66737728 -3.77754835 5.27109368 -5.9375 6.875 C-6.69224609 7.43058594 -7.44699219 7.98617188 -8.22460938 8.55859375 C-8.94326172 9.09355469 -9.66191406 9.62851562 -10.40234375 10.1796875 C-11.06741943 10.67194824 -11.73249512 11.16420898 -12.41772461 11.67138672 C-14.13140688 12.93165344 -14.13140688 12.93165344 -15 15 C-14.01 15.33 -13.02 15.66 -12 16 C-11.67 16.66 -11.34 17.32 -11 18 C-7.4780279 18.08004482 -4.38018531 18.04005702 -1 17 C-2 18.5 -2 18.5 -4 20 C-9.07559998 20.65491613 -10.9010704 20.84709156 -15 17.6875 C-17 15 -17 15 -17 12 C-15.43945312 10.55786133 -15.43945312 10.55786133 -13.28125 9.08203125 C-12.51425781 8.55029297 -11.74726563 8.01855469 -10.95703125 7.47070312 C-10.14621094 6.92349609 -9.33539063 6.37628906 -8.5 5.8125 C-7.28376953 4.97428711 -7.28376953 4.97428711 -6.04296875 4.11914062 C-4.03465764 2.73695004 -2.02035521 1.36449835 0 0 Z " fill="#477071" transform="translate(442,395)"/>
<path d="M0 0 C0.33 0.66 0.66 1.32 1 2 C-3.09996815 7.03834115 -7.54910407 11.59636206 -12.3125 16 C-12.84004883 16.49282471 -13.36759766 16.98564941 -13.91113281 17.4934082 C-17.75543313 21 -17.75543313 21 -20 21 C-19.505 19.515 -19.505 19.515 -19 18 C-18.34 18 -17.68 18 -17 18 C-16.67 17.01 -16.34 16.02 -16 15 C-15.34 15 -14.68 15 -14 15 C-13.67 14.01 -13.34 13.02 -13 12 C-8.54285714 8 -8.54285714 8 -6 8 C-5.34 6.68 -4.68 5.36 -4 4 C-3.34 4 -2.68 4 -2 4 C-2 3.01 -2 2.02 -2 1 C-1.34 0.67 -0.68 0.34 0 0 Z " fill="#235555" transform="translate(229,396)"/>
<path d="M0 0 C0.66 0.33 1.32 0.66 2 1 C1.67 2.32 1.34 3.64 1 5 C2.75244247 6.6483633 2.75244247 6.6483633 5 8 C9.04782698 7.73884987 12.79170618 5.30898497 15.5 2.375 C17.51536084 0.5275859 19.33833049 0.35968507 22 0 C19.08083323 3.20166678 16.02987236 5.85282075 12.5 8.375 C11.7678125 8.89835937 11.035625 9.42171875 10.28125 9.9609375 C7.37112142 11.28644127 5.99682195 11.01032922 3 10 C0.125 7.6875 0.125 7.6875 -2 5 C-1.87165745 2.68983403 -1.63394255 1.63394255 0 0 Z " fill="#326162" transform="translate(408,388)"/>
<path d="M0 0 C0 0.66 0 1.32 0 2 C-2.5 3.5 -2.5 3.5 -5 5 C-6.68997323 6.64302953 -8.35216394 8.31471312 -10 10 C-12.32345545 12.02847763 -14.66017411 14.03930744 -17.01171875 16.03515625 C-18.94744972 17.94806917 -19.96199056 19.50766717 -21 22 C-21.76953125 19.76953125 -21.76953125 19.76953125 -22 17 C-20.19921875 14.76171875 -20.19921875 14.76171875 -17.6875 12.6875 C-16.86636719 11.99011719 -16.04523438 11.29273438 -15.19921875 10.57421875 C-13 9 -13 9 -11 9 C-11 8.34 -11 7.68 -11 7 C-9.1015625 5.2734375 -9.1015625 5.2734375 -6.625 3.375 C-5.81289062 2.74335938 -5.00078125 2.11171875 -4.1640625 1.4609375 C-2 0 -2 0 0 0 Z " fill="#0F5655" transform="translate(198,354)"/>
<path d="M0 0 C2.06840293 1.80862721 2.91492111 3.27783498 3.23754883 6.01635742 C3.29551545 8.434357 3.26115877 10.83248149 3.1875 13.25 C3.17396484 14.09046875 3.16042969 14.9309375 3.14648438 15.796875 C3.11123464 17.86485938 3.0574302 19.93251271 3 22 C2.67 22 2.34 22 2 22 C1.93941406 20.79601562 1.87882812 19.59203125 1.81640625 18.3515625 C1.73200268 16.77602923 1.64735459 15.20050904 1.5625 13.625 C1.52318359 12.8309375 1.48386719 12.036875 1.44335938 11.21875 C1.31106596 6.97398779 1.31106596 6.97398779 0 3 C-4.19506523 3.39279235 -4.19506523 3.39279235 -7.75 5.4375 C-8.1625 5.953125 -8.575 6.46875 -9 7 C-9.66 7.66 -10.32 8.32 -11 9 C-10.67 7.35 -10.34 5.7 -10 4 C-9.01 3.67 -8.02 3.34 -7 3 C-7 2.34 -7 1.68 -7 1 C-4.4254716 -0.2872642 -2.85291355 -0.34791629 0 0 Z " fill="#115757" transform="translate(294,336)"/>
<path d="M0 0 C2.61527381 2.36620011 4.26440562 4.942048 6 8 C9.8373228 5.50127818 13.45960866 2.9156164 17 0 C15.63629701 2.99220268 14.05091917 5.29026529 11.875 7.75 C11.06675781 8.67039062 11.06675781 8.67039062 10.2421875 9.609375 C9.62730469 10.29773438 9.62730469 10.29773438 9 11 C6.75 10.9375 6.75 10.9375 4 10 C1.52994022 6.9301813 0 4.00503984 0 0 Z " fill="#255757" transform="translate(202,394)"/>
<path d="M0 0 C3.02487439 2.36318312 3.92788164 3.51320104 4.5 7.375 C3.67458458 13.35926176 0.32080425 16.98782463 -4 21 C-4.66 20.67 -5.32 20.34 -6 20 C-5.57847656 19.50371094 -5.15695312 19.00742187 -4.72265625 18.49609375 C-1.13320265 14.04517128 0.88837809 10.91596135 1 5 C0.64025105 2.18762459 0.64025105 2.18762459 0 0 Z " fill="#2C5B5D" transform="translate(459,382)"/>
<path d="M0 0 C-3.12776192 2.68093879 -5.74601376 3.62866621 -9.75 4.5 C-13.44248908 5.35003707 -16.92607176 6.2628634 -20.4375 7.6875 C-23.6383942 8.86677681 -25.65016057 9.31404745 -29 9 C-24.3794785 5.91965234 -19.18341953 4.55708032 -13.9375 2.8125 C-12.82310547 2.43158203 -11.70871094 2.05066406 -10.56054688 1.65820312 C-8.96629883 1.12549805 -8.96629883 1.12549805 -7.33984375 0.58203125 C-6.36394287 0.25436768 -5.38804199 -0.0732959 -4.38256836 -0.41088867 C-2 -1 -2 -1 0 0 Z " fill="#01E9E7" transform="translate(327,319)"/>
<path d="M0 0 C0.33 0 0.66 0 1 0 C1.10957031 0.68964844 1.21914062 1.37929688 1.33203125 2.08984375 C2.37883269 8.29405716 3.81465677 14.09957328 6 20 C6.66 20 7.32 20 8 20 C8.66 21.65 9.32 23.3 10 25 C5.74619862 23.48078522 4.14939431 20.86890976 2 17 C-0.09949136 11.39742475 -0.24684089 5.92418131 0 0 Z " fill="#115757" transform="translate(228,359)"/>
<path d="M0 0 C-0.33 0.99 -0.66 1.98 -1 3 C-1 2.34 -1 1.68 -1 1 C-4.24983135 2.08784968 -4.24983135 2.08784968 -7 4 C-7.04080783 5.99958364 -7.04254356 8.00045254 -7 10 C-7.99 10 -8.98 10 -10 10 C-10 7.03 -10 4.06 -10 1 C-6.21812119 -0.83691257 -4.05431692 -1.15837626 0 0 Z " fill="#0E7070" transform="translate(215,364)"/>
<path d="M0 0 C0.66 0 1.32 0 2 0 C0.3003494 4.73474097 -2.13659027 8.96167111 -4.625 13.3125 C-5.04523438 14.05306641 -5.46546875 14.79363281 -5.8984375 15.55664062 C-6.92948495 17.37269011 -7.96436046 19.18656533 -9 21 C-9.66 21 -10.32 21 -11 21 C-9.3003494 16.26525903 -6.86340973 12.03832889 -4.375 7.6875 C-3.95476562 6.94693359 -3.53453125 6.20636719 -3.1015625 5.44335938 C-2.07051505 3.62730989 -1.03563954 1.81343467 0 0 Z " fill="#02DFDE" transform="translate(216,333)"/>
<path d="M0 0 C3.63 0 7.26 0 11 0 C10.67 2.97 10.34 5.94 10 9 C8.68 9.33 7.36 9.66 6 10 C6.66 7.36 7.32 4.72 8 2 C5.36 2 2.72 2 0 2 C0 1.34 0 0.68 0 0 Z " fill="#125A5B" transform="translate(335,326)"/>
<path d="M0 0 C2.31 0 4.62 0 7 0 C6.1028125 0.2784375 6.1028125 0.2784375 5.1875 0.5625 C2.63575404 1.93814036 2.63575404 1.93814036 1.625 5.5 C0 9 0 9 -2.875 10.375 C-3.90625 10.58125 -4.9375 10.7875 -6 11 C-6.94875 11.20625 -7.8975 11.4125 -8.875 11.625 C-9.57625 11.74875 -10.2775 11.8725 -11 12 C-11 11.34 -11 10.68 -11 10 C-9.741875 9.649375 -8.48375 9.29875 -7.1875 8.9375 C-4.65628409 8.0146142 -3.33240554 7.48723939 -1.80078125 5.2421875 C-0.87959475 3.11319905 -0.87959475 3.11319905 0 0 Z " fill="#11595A" transform="translate(257,365)"/>
<path d="M0 0 C-0.51949219 0.268125 -1.03898437 0.53625 -1.57421875 0.8125 C-6.52511998 3.59452213 -9.26543632 6.24413704 -11.9921875 11.23046875 C-13 13 -13 13 -15 15 C-14.6446631 9.07771837 -13.24411091 6.14979733 -9 2 C-3.75524476 -1.25174825 -3.75524476 -1.25174825 0 0 Z " fill="#01EEED" transform="translate(427,315)"/>
<path d="M0 0 C0 0.66 0 1.32 0 2 C-1.65848177 3.01351664 -3.32665961 4.01120795 -5 5 C-5.70125 5.70125 -6.4025 6.4025 -7.125 7.125 C-9 9 -9 9 -12 10 C-12.99 11.485 -12.99 11.485 -14 13 C-15.32 12.67 -16.64 12.34 -18 12 C-14 9 -10 6 -6 3 C-5.25234375 2.40832031 -4.5046875 1.81664062 -3.734375 1.20703125 C-2 0 -2 0 0 0 Z " fill="#255F60" transform="translate(447,361)"/>
<path d="M0 0 C2.25 -0.375 2.25 -0.375 5 0 C9.77703195 4.90972728 9.76477544 10.39019 10 17 C7.05437633 14.57185076 6.58526971 12.79517511 6.125 9.0625 C5.47117436 5.20154685 5.25451247 4.25451247 2.375 1.375 C1.59125 0.92125 0.8075 0.4675 0 0 Z " fill="#0F6363" transform="translate(299,328)"/>
<path d="M0 0 C2.31 0 4.62 0 7 0 C8.57270694 9.75503356 8.57270694 9.75503356 6 14 C5.01 14.66 4.02 15.32 3 16 C2.01 15.67 1.02 15.34 0 15 C1.2375 14.319375 1.2375 14.319375 2.5 13.625 C5.41778542 10.56132531 5.34127949 9.81366457 5.3125 5.75 C5.23234745 4.16526952 5.1357675 2.58093717 5 1 C3.35 1 1.7 1 0 1 C0 0.67 0 0.34 0 0 Z " fill="#DAF7F7" transform="translate(239,152)"/>
<path d="M0 0 C3.05967749 1.56906538 5.95292928 3.19874533 8 6 C8.1875 8.6875 8.1875 8.6875 8 11 C7.34 11 6.68 11 6 11 C5.938125 10.236875 5.87625 9.47375 5.8125 8.6875 C5.20935293 5.84407145 5.20935293 5.84407145 2.8125 4.0625 C-0.83153347 2.68586513 -2.51310139 3.45927736 -6 5 C-2.25 1.125 -2.25 1.125 0 0 Z " fill="#276667" transform="translate(453,356)"/>
<path d="M0 0 C0 0.99 0 1.98 0 3 C-0.58007812 3.18175781 -1.16015625 3.36351562 -1.7578125 3.55078125 C-5.47806408 4.74789191 -8.89386503 5.94496705 -12.375 7.75 C-15 9 -15 9 -18 8 C-15.1398269 5.1398269 -11.60815162 4.22254523 -7.875 2.875 C-7.12089844 2.59785156 -6.36679688 2.32070313 -5.58984375 2.03515625 C-3.72836879 1.35183 -1.86441398 0.67526611 0 0 Z " fill="#02DDDB" transform="translate(230,355)"/>
<path d="M0 0 C0.66 0.33 1.32 0.66 2 1 C1.195625 1.61875 0.39125 2.2375 -0.4375 2.875 C-3.03874519 4.74164041 -3.03874519 4.74164041 -4 7 C-5.97888961 7.72693904 -7.97954558 8.39816251 -10 9 C-10.66 8.34 -11.32 7.68 -12 7 C-11.01 6.34 -10.02 5.68 -9 5 C-7.80767387 2.94996045 -7.80767387 2.94996045 -7 1 C-7 2.32 -7 3.64 -7 5 C-4.69 3.35 -2.38 1.7 0 0 Z " fill="#265A5B" transform="translate(420,379)"/>
<path d="M0 0 C1.85776765 3.13498292 2.20140476 5.37471432 2 9 C1.01 9.495 1.01 9.495 0 10 C-0.144375 9.21625 -0.28875 8.4325 -0.4375 7.625 C-0.87798925 5.03578982 -0.87798925 5.03578982 -2 3 C-5.3 3 -8.6 3 -12 3 C-12 2.67 -12 2.34 -12 2 C-7.8803623 0.70756464 -4.33168317 -0.26252625 0 0 Z " fill="#195456" transform="translate(410,375)"/>
<path d="M0 0 C3.38637503 1.40125863 5.11654879 2.84631425 7 6 C7.07421875 8.578125 7.07421875 8.578125 6.6875 11.25 C6.56761719 12.14203125 6.44773438 13.0340625 6.32421875 13.953125 C6.21722656 14.62859375 6.11023438 15.3040625 6 16 C5.67 16 5.34 16 5 16 C4.98582031 15.31292969 4.97164062 14.62585938 4.95703125 13.91796875 C4.81281183 11.19339102 4.60862014 8.6616416 4 6 C1.62744885 3.78693049 1.62744885 3.78693049 -1 3 C-0.67 2.01 -0.34 1.02 0 0 Z " fill="#145151" transform="translate(214,380)"/>
<path d="M0 0 C0.66 0.33 1.32 0.66 2 1 C2.31464883 6.24414718 1.83856733 9.53939419 -1 14 C-3.1875 15.875 -3.1875 15.875 -5 17 C-3.87548273 14.0280615 -2.77706209 11.66559313 -1 9 C-0.54605448 6.72087062 -0.54605448 6.72087062 -0.375 4.3125 C-0.30023437 3.50425781 -0.22546875 2.69601562 -0.1484375 1.86328125 C-0.09945312 1.24839844 -0.05046875 0.63351562 0 0 Z " fill="#01EFED" transform="translate(589,304)"/>
<path d="M0 0 C1.32 0.33 2.64 0.66 4 1 C2.27898082 2.32316536 0.54781907 3.63314524 -1.1875 4.9375 C-2.63189453 6.03384766 -2.63189453 6.03384766 -4.10546875 7.15234375 C-6.88959799 8.92952746 -8.75667585 9.62645444 -12 10 C-8.67586928 6.30652142 -4.70963307 3.56987769 0 2 C0 1.34 0 0.68 0 0 Z " fill="#2E5C5D" transform="translate(449,403)"/>
<path d="M0 0 C-0.33 0.99 -0.66 1.98 -1 3 C-3.8125 4.0625 -3.8125 4.0625 -7 5 C-7.70125 5.391875 -8.4025 5.78375 -9.125 6.1875 C-11.49598042 7.21492485 -12.57841918 6.70838775 -15 6 C-12.87717331 4.99539469 -10.75166979 3.99644398 -8.625 3 C-7.44164062 2.443125 -6.25828125 1.88625 -5.0390625 1.3125 C-2 0 -2 0 0 0 Z " fill="#02E0DE" transform="translate(272,338)"/>
<path d="M0 0 C0.66 0.33 1.32 0.66 2 1 C0.23871656 2.36656457 -1.53436088 3.71794085 -3.3125 5.0625 C-4.29863281 5.81660156 -5.28476562 6.57070313 -6.30078125 7.34765625 C-7.63689453 8.16556641 -7.63689453 8.16556641 -9 9 C-9.99 8.67 -10.98 8.34 -12 8 C-9.62624557 5.25144224 -7.33642103 4.3170083 -4 3 C-3.67 2.34 -3.34 1.68 -3 1 C-2.01 0.67 -1.02 0.34 0 0 Z " fill="#265657" transform="translate(428,388)"/>
<path d="M0 0 C5.875 0.875 5.875 0.875 7 2 C7.3125 5.375 7.3125 5.375 7 9 C5 10.9375 5 10.9375 3 12 C2.34 11.67 1.68 11.34 1 11 C2.32 9.68 3.64 8.36 5 7 C3.75023244 3.34683329 3.32901247 2.21934164 0 0 Z " fill="#336263" transform="translate(443,383)"/>
<path d="M0 0 C5.59404995 0.68220121 9.98713012 2.49356506 15 5 C15 5.66 15 6.32 15 7 C14.44699219 6.7009375 13.89398438 6.401875 13.32421875 6.09375 C10.04464173 4.55041964 6.63624019 3.72191537 3.14453125 2.78125 C1 2 1 2 0 0 Z " fill="#2B5F60" transform="translate(444,375)"/>
<path d="M0 0 C0.33 1.32 0.66 2.64 1 4 C-0.0725 3.835 -1.145 3.67 -2.25 3.5 C-6.03028752 2.91189085 -6.03028752 2.91189085 -10 3 C-10.33 3.99 -10.66 4.98 -11 6 C-11 4.68 -11 3.36 -11 2 C-7.17010894 0.19769832 -4.21878192 -0.19622241 0 0 Z " fill="#0C8080" transform="translate(261,345)"/>
<path d="M0 0 C3.77366756 0.51459103 6.6370426 1.26428005 10 3 C11.65740715 3.37668344 13.32345271 3.72057545 15 4 C15 4.33 15 4.66 15 5 C8.92671312 5.50610724 5.22771463 4.04157942 0 1 C0 0.67 0 0.34 0 0 Z " fill="#1F5354" transform="translate(386,383)"/>
<path d="M0 0 C0.66 0 1.32 0 2 0 C1.60935585 2.46528135 1.26760629 3.73307988 -0.5234375 5.51953125 C-1.43996094 6.15955078 -1.43996094 6.15955078 -2.375 6.8125 C-2.98085937 7.25207031 -3.58671875 7.69164062 -4.2109375 8.14453125 C-6 9 -6 9 -9 8 C-8.43410156 7.59007812 -7.86820313 7.18015625 -7.28515625 6.7578125 C-6.18494141 5.94957031 -6.18494141 5.94957031 -5.0625 5.125 C-4.33160156 4.59132813 -3.60070312 4.05765625 -2.84765625 3.5078125 C-0.88901765 2.11987896 -0.88901765 2.11987896 0 0 Z " fill="#0F5253" transform="translate(204,374)"/>
<path d="M0 0 C3 1 3 1 4.4375 2.625 C4.953125 3.07875 5.46875 3.5325 6 4 C8.16299211 3.77242269 8.16299211 3.77242269 10 3 C8.75 5 8.75 5 7 7 C5.68 7 4.36 7 3 7 C0 2.92857143 0 2.92857143 0 0 Z " fill="#366565" transform="translate(199,414)"/>
<path d="M0 0 C0.33 0.66 0.66 1.32 1 2 C2.65 2 4.3 2 6 2 C3.11371599 3.57554035 0.46657616 4.46276373 -2.75 5.125 C-3.54921875 5.29257812 -4.3484375 5.46015625 -5.171875 5.6328125 C-5.77515625 5.75398438 -6.3784375 5.87515625 -7 6 C-4.74259377 3.66475218 -2.7194239 1.81294927 0 0 Z " fill="#01E5E4" transform="translate(322,293)"/>
<path d="M0 0 C2.475 0.495 2.475 0.495 5 1 C4.34 4.3 3.68 7.6 3 11 C0.82233925 6.64467851 0.96960445 5.53374042 2 1 C1.34 0.67 0.68 0.34 0 0 Z " fill="#106868" transform="translate(237,352)"/>
<path d="M0 0 C0.33 0.99 0.66 1.98 1 3 C-3.455 4.485 -3.455 4.485 -8 6 C-8.66 5.34 -9.32 4.68 -10 4 C-6.7 2.68 -3.4 1.36 0 0 Z " fill="#03D9D7" transform="translate(249,347)"/>
<path d="M0 0 C2.97 0.495 2.97 0.495 6 1 C3.83312509 3.27521866 1.54379491 5.15794162 -1 7 C-1.66 6.67 -2.32 6.34 -3 6 C-2.01 4.02 -1.02 2.04 0 0 Z " fill="#00EDEB" transform="translate(306,269)"/>
<path d="M0 0 C0.33 0 0.66 0 1 0 C1.18451025 9.41002278 1.18451025 9.41002278 0 14 C-0.33 14 -0.66 14 -1 14 C-2.51708428 4.58997722 -2.51708428 4.58997722 0 0 Z " fill="#135454" transform="translate(282,345)"/>
<path d="M0 0 C5.03985731 0.44469329 7.37634988 2.71343362 11 6 C7.61121488 6 6.60242783 5.35638802 3.8125 3.5625 C2.73935547 2.88380859 2.73935547 2.88380859 1.64453125 2.19140625 C1.10183594 1.79824219 0.55914062 1.40507812 0 1 C0 0.67 0 0.34 0 0 Z " fill="#07F6F4" transform="translate(436,314)"/>
<path d="M0 0 C1.5 1.375 1.5 1.375 3 3 C3 3.66 3 4.32 3 5 C3.99 5.33 4.98 5.66 6 6 C6.6875 8.0625 6.6875 8.0625 7 10 C2.57320993 8.52440331 2.08567304 6.09942632 0 2 C0 1.34 0 0.68 0 0 Z " fill="#215656" transform="translate(188,394)"/>
<path d="M0 0 C2 1.5625 2 1.5625 4 4 C4.25 7.75 4.25 7.75 4 11 C3.67 11 3.34 11 3 11 C1.72746564 7.35206816 0.67170806 3.8063457 0 0 Z " fill="#3C6A6B" transform="translate(459,382)"/>
<path d="M0 0 C-2.71182212 2.60334924 -3.89133813 2.99456691 -7.75 3.1875 C-8.8225 3.125625 -9.895 3.06375 -11 3 C-3.71428571 -1.85714286 -3.71428571 -1.85714286 0 0 Z " fill="#02DBD9" transform="translate(327,319)"/>
<path d="M0 0 C0.99 0.33 1.98 0.66 3 1 C4.1875 4.0625 4.1875 4.0625 5 7 C3.68 7 2.36 7 1 7 C0.67 4.69 0.34 2.38 0 0 Z " fill="#125757" transform="translate(414,361)"/>
<path d="M0 0 C2 3 2 3 1.75 5.5 C1 8 1 8 -1 11 C-0.67 7.37 -0.34 3.74 0 0 Z " fill="#125A5B" transform="translate(316,349)"/>
<path d="M0 0 C0.33 0 0.66 0 1 0 C0.67 2.31 0.34 4.62 0 7 C-0.99 7.33 -1.98 7.66 -3 8 C-1.125 1.125 -1.125 1.125 0 0 Z " fill="#12595A" transform="translate(346,342)"/>
</svg>
